<?xml version="1.0" encoding="UTF-8"?>
<svg xmlns="http://www.w3.org/2000/svg" xmlns:xlink="http://www.w3.org/1999/xlink" width="1006.45pt" height="561.582pt" viewBox="0 0 1006.45 561.582">
<defs>
<clipPath id="clip-0">
<path clip-rule="nonzero" d="M 0.0976562 0 L 1005.800781 0 L 1005.800781 561.164062 L 0.0976562 561.164062 Z M 0.0976562 0 "/>
</clipPath>
<clipPath id="clip-1">
<rect x="0" y="0" width="1006" height="562"/>
</clipPath>
<g id="source-5" clip-path="url(#clip-1)">
<path fill-rule="evenodd" fill="rgb(100%, 100%, 100%)" fill-opacity="1" d="M 276.753906 16.71875 C 281.644531 16.515625 286.117188 17.8125 288.386719 23.015625 C 290.472656 27.796875 288.808594 33.117188 284.132812 37.332031 C 283.636719 37.773438 283.117188 38.191406 282.589844 38.597656 C 275.621094 43.972656 275.828125 43.804688 281.503906 50.90625 C 299.480469 73.40625 317.265625 96.058594 335.183594 118.609375 C 337.347656 121.332031 336.996094 123.1875 334.164062 125.152344 C 331.164062 127.230469 328.359375 129.609375 325.617188 132.023438 C 324.496094 133.007812 322.429688 134.050781 323.957031 136.050781 C 325.378906 137.910156 327.0625 137.375 328.714844 136.035156 C 331.816406 133.519531 335.449219 131.492188 338.011719 128.527344 C 340.511719 125.632812 341.589844 126.417969 343.480469 128.820312 C 352.957031 140.855469 362.664062 152.707031 372.058594 164.804688 C 403.503906 205.285156 434.714844 245.941406 468.503906 284.539062 C 494.921875 314.714844 521.128906 345.066406 547.324219 375.429688 C 551.773438 380.582031 557.824219 383.039062 563.578125 385.855469 C 595.101562 401.273438 621.085938 423.355469 643.414062 450.242188 C 653.832031 462.789062 664.59375 475.035156 673.972656 488.40625 C 675.019531 489.902344 676.003906 491.460938 676.859375 493.074219 C 683.015625 504.632812 682.179688 511.328125 672.609375 520.21875 C 661.992188 530.082031 649.429688 536.972656 635.929688 542.027344 C 625.523438 545.925781 616.953125 541.539062 609.664062 534.488281 C 595.710938 520.996094 584.558594 505.175781 573.519531 489.332031 C 560.449219 470.574219 548.574219 451.144531 541.652344 429.09375 C 539.203125 421.304688 536.550781 413.484375 535.777344 405.402344 C 534.796875 395.140625 529.667969 387.578125 523.113281 380.164062 C 505.699219 360.46875 488.496094 340.574219 471.558594 320.464844 C 447.011719 291.320312 422.140625 262.417969 398.546875 232.511719 C 359.371094 182.851562 318.429688 134.59375 280.578125 83.882812 C 274.007812 75.074219 267.136719 66.492188 260.597656 57.660156 C 258.222656 54.453125 255.988281 53.992188 252.695312 56.230469 C 250.664062 57.613281 248.28125 58.570312 245.933594 59.371094 C 240.261719 61.308594 234.855469 59.960938 231.816406 56.089844 C 228.617188 52.015625 228.507812 46.1875 231.644531 41.105469 C 234.414062 36.617188 238.519531 33.457031 242.667969 30.367188 C 253.328125 22.433594 267.585938 16.683594 276.753906 16.71875 "/>
<path fill-rule="evenodd" fill="rgb(100%, 100%, 100%)" fill-opacity="1" d="M 817.355469 129.890625 C 817.160156 131.453125 816.292969 132.648438 815.324219 133.820312 C 798.207031 154.457031 782.292969 176.03125 765.820312 197.171875 C 764.945312 198.300781 763.476562 199.148438 763.769531 201.476562 C 799.347656 195.144531 834.230469 186.222656 868.511719 175.214844 C 902.730469 164.226562 935.773438 150.132812 968.605469 133.03125 C 967.292969 141.304688 964.664062 147.925781 962.507812 154.640625 C 942.632812 216.53125 916.382812 275.355469 876.152344 326.933594 C 859.753906 347.960938 841.023438 367.027344 816.722656 379.441406 C 803.417969 386.238281 782.664062 391.699219 771.398438 391.347656 C 771.222656 389.6875 772.558594 389.636719 773.597656 389.253906 C 798.878906 379.929688 819.671875 364.199219 837.238281 344.082031 C 879.140625 296.089844 905.863281 239.980469 924.855469 179.878906 C 923.824219 178.578125 922.851562 179.234375 922.015625 179.589844 C 891.003906 192.910156 858.488281 201.28125 825.703125 208.730469 C 792.476562 216.273438 758.851562 221.558594 725.125 226.324219 C 702.417969 229.535156 679.632812 231.996094 656.804688 233.898438 C 635.941406 235.640625 615.003906 236.726562 594.140625 238.378906 C 547.457031 242.078125 500.730469 242.222656 453.96875 242.324219 C 447.6875 242.335938 443.011719 240.933594 439.550781 235.710938 C 438.542969 234.195312 437.25 232.867188 436.089844 231.449219 C 433.25 227.988281 430.542969 224.355469 425.769531 222.980469 C 433.972656 223.46875 442.164062 224.214844 450.371094 224.40625 C 491.171875 225.359375 531.945312 223.984375 572.699219 222.351562 C 596.28125 221.410156 619.769531 218.703125 643.300781 216.828125 C 671.167969 214.609375 698.875 211.148438 726.582031 207.601562 C 731.398438 206.980469 734.886719 205.351562 738.058594 201.117188 C 756.8125 176.070312 776.042969 151.375 795.023438 126.496094 C 797.355469 123.4375 799.390625 122.296875 802.664062 125.21875 C 804.632812 126.976562 807.289062 127.964844 809.214844 129.75 C 812.0625 132.398438 814.621094 132.316406 817.40625 129.925781 Z M 817.355469 129.890625 "/>
<path fill-rule="evenodd" fill="rgb(100%, 100%, 100%)" fill-opacity="1" d="M 822.164062 253.585938 C 805.78125 257.457031 789.390625 259.933594 773.042969 262.578125 C 760.898438 264.542969 751.707031 270.65625 744.410156 280.015625 C 739.472656 286.347656 736.078125 293.605469 733.085938 301.050781 C 731.601562 304.742188 732.457031 305.777344 736.433594 305.214844 C 757.980469 302.175781 779.554688 299.292969 801.117188 296.355469 C 803.691406 296.003906 805.839844 295.261719 806.925781 292.453125 C 811.878906 279.605469 816.964844 266.808594 822.164062 253.585938 M 754.28125 383.203125 C 763.59375 374.773438 770.535156 364.691406 777.015625 354.269531 C 782.472656 345.492188 787.039062 336.253906 791.144531 326.773438 C 792.246094 324.230469 791.765625 323.566406 788.972656 323.957031 C 767.421875 326.972656 745.867188 329.941406 724.292969 332.777344 C 721.351562 333.164062 720.085938 334.519531 719.15625 337.203125 C 715.054688 349.039062 709.257812 360.007812 702.648438 370.683594 C 694.015625 384.625 681.828125 391.113281 665.699219 390.917969 C 659.785156 390.847656 653.875 390.90625 647.117188 390.90625 C 650.261719 386.945312 652.777344 383.726562 655.347656 380.546875 C 671.640625 360.371094 680.925781 336.722656 689.144531 312.527344 C 691.445312 305.753906 693.851562 299.011719 696.46875 292.355469 C 708.945312 260.617188 732.03125 241.632812 765.566406 235.589844 C 797.800781 229.785156 829.980469 223.753906 861.730469 215.65625 C 872.84375 212.820312 883.859375 209.585938 894.695312 205.777344 C 895.753906 205.40625 897.300781 204.753906 897.941406 205.203125 C 899.410156 206.230469 897.972656 207.636719 897.542969 208.742188 C 879.359375 255.484375 854.609375 298.441406 822.601562 337.078125 C 809.058594 353.429688 793.96875 368.214844 774.347656 377.445312 C 768.035156 380.417969 761.484375 382.582031 754.28125 383.203125 "/>
<path fill-rule="evenodd" fill="rgb(100%, 100%, 100%)" fill-opacity="1" d="M 176.871094 254.160156 C 183.394531 267.519531 189.425781 279.695312 195.265625 291.957031 C 196.816406 295.222656 198.925781 296.515625 202.578125 296.605469 C 207.367188 296.726562 212.121094 297.867188 216.917969 298.113281 C 224.320312 298.496094 231.664062 300.582031 239.167969 298.410156 C 249.40625 295.441406 253.605469 284.691406 247.496094 275.957031 C 243.289062 269.945312 237.605469 265.429688 230.457031 263.640625 C 213.25 259.335938 195.589844 257.507812 176.871094 254.160156 M 266.742188 323.914062 C 294.992188 354.699219 326.972656 378.089844 367.257812 390.578125 C 358.292969 391.964844 350.121094 390.644531 342.046875 389.648438 C 301.015625 384.589844 265.851562 367.429688 238.238281 336.546875 C 230.769531 328.191406 223.222656 323.1875 212.140625 323.730469 C 211.824219 323.746094 211.507812 323.796875 210.660156 323.882812 C 226.996094 351.144531 246.921875 374.46875 275.414062 390.175781 C 272.902344 391.746094 270.441406 391.03125 268.191406 390.84375 C 246.316406 389.023438 227.566406 379.761719 211.070312 365.84375 C 178.789062 338.609375 155.109375 304.578125 134.722656 268.015625 C 124.417969 249.539062 115.425781 230.4375 107.5625 210.796875 C 107.128906 209.71875 106.726562 208.628906 106.363281 207.523438 C 106.015625 206.464844 105.027344 205.328125 105.988281 204.28125 C 107 203.179688 108.195312 204.238281 109.214844 204.550781 C 117.632812 207.152344 126 209.914062 134.425781 212.476562 C 164.992188 221.773438 196.214844 228.296875 227.515625 234.527344 C 241.597656 237.335938 255.375 241.328125 267.335938 249.707031 C 278.050781 257.210938 286.65625 266.589844 290.734375 279.339844 C 297.136719 299.339844 292.097656 317.597656 266.742188 323.914062 "/>
<path fill-rule="evenodd" fill="rgb(100%, 100%, 100%)" fill-opacity="1" d="M 632 295.542969 C 624.878906 302.167969 618.148438 308.277344 611.59375 314.566406 C 600.308594 325.398438 589.035156 336.242188 577.980469 347.308594 C 575.402344 349.890625 574.113281 349.117188 572.03125 347.007812 C 557.761719 332.5625 543.371094 318.234375 529.089844 303.796875 C 526.765625 301.449219 524.785156 298.757812 521.894531 296.691406 C 520.640625 309.085938 523.984375 320.679688 524.003906 332.894531 C 521.285156 332.152344 520.0625 329.914062 518.589844 328.160156 C 506.820312 314.152344 495.253906 299.972656 482.839844 286.515625 C 481.441406 285 480.554688 283.394531 480.226562 281.292969 C 479.050781 273.675781 476.714844 266.398438 473.054688 259.601562 C 471.273438 256.296875 472.613281 255.574219 475.738281 255.59375 C 490.21875 255.675781 504.703125 255.753906 519.183594 255.664062 C 522.183594 255.644531 524.226562 257.109375 526.207031 258.886719 C 540.566406 271.777344 554.933594 284.660156 569.214844 297.636719 C 574.160156 302.128906 574.027344 302.222656 578.789062 297.820312 C 594.792969 283.027344 611.390625 268.886719 626.941406 253.601562 C 628.828125 251.75 631.0625 250.835938 633.648438 250.695312 C 650.25 249.804688 666.816406 248.4375 683.3125 246.363281 C 686.816406 245.921875 687.105469 246.871094 685.777344 249.699219 C 676.195312 270.160156 671.335938 292.183594 664.679688 313.613281 C 656.957031 338.492188 647.289062 362.496094 633.570312 384.773438 C 630.675781 389.476562 627.816406 391.964844 621.6875 391.195312 C 614.308594 390.265625 606.734375 390.953125 599.242188 390.878906 C 597.628906 390.863281 595.496094 391.597656 594.546875 390.140625 C 593.429688 388.425781 595.515625 387.207031 596.382812 385.914062 C 614.34375 359.101562 624.972656 329.316406 632.089844 298.101562 C 632.222656 297.519531 632.058594 296.867188 632 295.542969 "/>
<path fill-rule="evenodd" fill="rgb(100%, 100%, 100%)" fill-opacity="1" d="M 225.824219 388.347656 C 223.433594 390.738281 221.867188 389.402344 220.417969 389.070312 C 195.03125 383.269531 173.71875 370.121094 155.082031 352.359375 C 126.847656 325.449219 104.742188 293.9375 86.226562 259.777344 C 65.140625 220.875 49.066406 179.847656 34.730469 138.089844 C 34.386719 137.089844 33.457031 136.039062 34.566406 134.324219 C 37.941406 135.71875 41.457031 137.042969 44.867188 138.605469 C 103.769531 165.542969 164.527344 187.085938 227.890625 200.808594 C 262.027344 208.199219 296.492188 213.871094 331.261719 217.359375 C 345.316406 218.769531 359.332031 220.867188 373.507812 220.882812 C 376.292969 220.882812 378.5 221.851562 380.382812 224.1875 C 384.230469 228.960938 388.429688 233.460938 392.25 238.714844 C 283.910156 235.839844 178.320312 219.09375 76.636719 177.800781 C 79.765625 186.699219 82.570312 195.183594 85.71875 203.539062 C 103.417969 250.460938 127.664062 293.695312 159.339844 332.625 C 177.4375 354.871094 198.164062 374.199219 223.859375 387.613281 C 224.457031 387.921875 225.128906 388.089844 225.824219 388.347656 "/>
<path fill-rule="evenodd" fill="rgb(100%, 100%, 100%)" fill-opacity="1" d="M 288.855469 244.246094 C 299.730469 245.425781 310.589844 246.730469 321.476562 247.753906 C 335.871094 249.105469 350.277344 250.375 364.699219 251.414062 C 376.972656 252.300781 389.269531 252.867188 401.566406 253.433594 C 403.984375 253.546875 405.652344 254.558594 407.082031 256.296875 C 413.328125 263.875 419.570312 271.449219 425.8125 279.027344 C 426.328125 279.65625 427.113281 280.289062 426.644531 281.1875 C 425.953125 282.511719 424.589844 282.042969 423.511719 282 C 414.367188 281.632812 405.222656 281.285156 396.089844 280.761719 C 380.484375 279.867188 364.882812 278.910156 349.289062 277.835938 C 346.410156 277.636719 345.660156 278.742188 346.136719 281.25 C 347.125 286.46875 348.183594 291.675781 349.160156 296.898438 C 349.554688 299.023438 351.050781 299.367188 352.835938 299.464844 C 370.433594 300.445312 388.03125 301.488281 405.628906 302.421875 C 413.933594 302.863281 422.246094 303.183594 430.558594 303.398438 C 433.09375 303.460938 434.058594 304.324219 434.109375 306.910156 C 434.238281 313.226562 434.523438 319.546875 434.953125 325.851562 C 435.214844 329.667969 433.953125 331.339844 429.898438 331.105469 C 413.460938 330.144531 397.011719 329.382812 380.570312 328.492188 C 373.433594 328.101562 366.300781 327.640625 359.171875 327.082031 C 355.660156 326.804688 355.148438 328.226562 356.308594 331.167969 C 361.597656 344.570312 371.941406 350.847656 385.789062 352.382812 C 406.289062 354.652344 426.839844 356.265625 447.472656 356.464844 C 451.449219 356.5 453.164062 357.695312 453.035156 361.910156 C 452.789062 369.894531 452.898438 377.894531 452.996094 385.882812 C 453.03125 388.855469 451.871094 390.207031 448.863281 389.988281 C 418.871094 387.789062 388.59375 387.007812 360.101562 375.847656 C 343.058594 369.175781 328.15625 359.410156 319.136719 342.574219 C 313.417969 331.90625 311.859375 320.238281 310.410156 308.492188 C 309.007812 297.117188 307.824219 285.710938 304.996094 274.546875 C 302.117188 263.195312 297.019531 253.164062 288.855469 244.246094 "/>
<path fill-rule="evenodd" fill="rgb(100%, 100%, 100%)" fill-opacity="1" d="M 555.507812 486.933594 C 544.574219 482.113281 534.125 476.675781 522.992188 472.652344 C 487.597656 459.851562 453.898438 463.089844 421.1875 481.726562 C 400.125 493.726562 377.585938 501.371094 352.816406 500.921875 C 327.796875 500.464844 305.195312 492.425781 283.996094 479.777344 C 270.492188 471.71875 256.613281 464.558594 240.925781 461.910156 C 225.699219 459.339844 210.820312 460.832031 196.28125 466.265625 C 180.824219 472.046875 166.832031 481.238281 151.03125 486.054688 C 117.058594 496.40625 85.601562 491.386719 57.25 469.4375 C 57.035156 469.269531 57.007812 468.855469 56.777344 468.261719 C 58.90625 467.46875 60.578125 468.832031 62.261719 469.433594 C 86.382812 478.050781 110.714844 479.195312 135.238281 471.375 C 146.871094 467.664062 157.335938 461.335938 168.316406 456.164062 C 180.21875 450.558594 192.238281 445.351562 205.375 443.183594 C 228.808594 439.320312 251.109375 442.96875 272.324219 453.253906 C 283.246094 458.550781 293.742188 464.722656 304.609375 470.144531 C 336.398438 486 368.566406 485.710938 401.097656 472.253906 C 415.847656 466.148438 430.078125 458.535156 445.601562 454.578125 C 480.726562 445.625 512.851562 452.484375 541.714844 474.394531 C 546.664062 478.152344 551.78125 481.769531 555.507812 486.933594 "/>
<path fill-rule="evenodd" fill="rgb(100%, 100%, 100%)" fill-opacity="1" d="M 589.175781 527.914062 C 577.414062 520.816406 565.25 514.738281 552.640625 509.5 C 517.734375 495 483.296875 495.71875 449.308594 512.484375 C 430.035156 521.992188 410.625 531.132812 389.597656 536.292969 C 356.046875 544.519531 324.269531 540.476562 294.214844 523.199219 C 282.390625 516.40625 270.859375 509.046875 258.195312 503.792969 C 234.886719 494.125 211.527344 493.972656 188.273438 503.714844 C 173.367188 509.964844 158.621094 516.632812 142.328125 518.390625 C 129.039062 519.824219 115.878906 519.074219 102.691406 515.214844 C 103.839844 513.65625 105.25 514.207031 106.394531 514.292969 C 130.03125 516.046875 151.40625 509.601562 171.367188 497.140625 C 182.945312 489.914062 194.96875 483.34375 208.492188 480.304688 C 231.710938 475.089844 253.351562 479.847656 274.078125 490.679688 C 284.429688 496.089844 294.078125 502.640625 304.046875 508.660156 C 333.242188 526.292969 363.75 528.519531 395.625 517.164062 C 409.9375 512.066406 423.625 505.621094 437.109375 498.695312 C 450.820312 491.652344 465.160156 486.042969 480.351562 483.667969 C 509.992188 479.035156 537.25 485.34375 561.269531 503.816406 C 571.007812 511.308594 580.503906 519.117188 589.175781 527.914062 "/>
<path fill-rule="evenodd" fill="rgb(100%, 100%, 100%)" fill-opacity="1" d="M 927.109375 491.347656 C 918.59375 487.339844 909.964844 483.546875 901.578125 479.28125 C 872.6875 464.585938 843.933594 463.859375 815.238281 479.699219 C 804.285156 485.746094 793.09375 491.261719 780.832031 494.09375 C 760.835938 498.710938 741.863281 495.867188 724.0625 485.59375 C 716.269531 481.097656 708.953125 475.910156 701.910156 470.304688 C 689.347656 460.304688 675.929688 451.765625 660.625 446.484375 C 659.625 446.140625 658.226562 446.167969 657.644531 444.128906 C 667.105469 444.300781 675.976562 446.332031 684.707031 449.148438 C 698.261719 453.519531 710.25 461.164062 722.859375 467.511719 C 733.332031 472.78125 744.125 476.84375 755.988281 477.691406 C 770.210938 478.710938 783.246094 474.496094 795.972656 468.984375 C 806.351562 464.488281 816.589844 459.683594 827.75 457.335938 C 848.015625 453.070312 867.351562 456.167969 886.179688 464.28125 C 900.679688 470.527344 913.203125 479.917969 926.132812 488.679688 C 926.769531 489.109375 927.1875 489.863281 927.710938 490.46875 C 927.511719 490.761719 927.3125 491.054688 927.109375 491.347656 "/>
<path fill-rule="evenodd" fill="rgb(100%, 100%, 100%)" fill-opacity="1" d="M 932.777344 509.59375 C 928.230469 508.257812 924.597656 507.308594 921.039062 506.132812 C 889.210938 495.613281 858.433594 498.476562 828.476562 513.109375 C 815.453125 519.472656 802.242188 525.507812 787.886719 528.25 C 763.507812 532.902344 740.957031 528.34375 720.332031 514.382812 C 704.898438 503.9375 692.386719 490.285156 679.230469 477.332031 C 678.816406 476.921875 678.601562 476.308594 677.882812 475.101562 C 681.328125 475.738281 683.199219 477.625 685.273438 479.101562 C 698.007812 488.171875 710.1875 498.074219 724.453125 504.816406 C 743.875 513.996094 764.164062 516.273438 785.300781 512.980469 C 800.847656 510.554688 814.894531 504.027344 828.847656 497.40625 C 852.351562 486.253906 876.238281 483.996094 901.074219 492.292969 C 910.160156 495.328125 926.617188 503.746094 932.777344 509.59375 "/>
<path fill-rule="evenodd" fill="rgb(100%, 100%, 100%)" fill-opacity="1" d="M 817.40625 129.925781 C 814.398438 125.746094 809.796875 123.535156 805.632812 120.949219 C 801.691406 118.492188 801.898438 116.667969 804.507812 113.289062 C 814.355469 100.527344 823.820312 87.472656 833.65625 74.703125 C 836.492188 71.015625 837.015625 68.605469 832.898438 65.328125 C 827.003906 60.644531 825.574219 55.332031 827.949219 51.066406 C 830.304688 46.84375 836.292969 45.328125 843.234375 47.613281 C 854.480469 51.320312 864.457031 57.21875 872.183594 66.308594 C 875.578125 70.304688 879.308594 74.765625 875.867188 80.617188 C 873.484375 84.671875 867.609375 86.351562 861.019531 83.894531 C 855.445312 81.8125 852.667969 83.792969 849.546875 88.066406 C 840.144531 100.949219 830.375 113.566406 820.710938 126.257812 C 819.714844 127.566406 818.476562 128.6875 817.355469 129.894531 Z M 817.40625 129.925781 "/>
<path fill-rule="evenodd" fill="rgb(100%, 100%, 100%)" fill-opacity="1" d="M 129.121094 400.710938 C 129.121094 416.183594 129.117188 431.660156 129.125 447.132812 C 129.128906 450 129.074219 452.945312 126.890625 455.070312 C 124.769531 457.136719 122.09375 457.957031 119.070312 457.230469 C 116.019531 456.496094 114 454.667969 113.425781 451.597656 C 113.03125 449.488281 112.910156 447.308594 112.90625 445.160156 C 112.875 416.207031 112.875 387.257812 112.902344 358.304688 C 112.90625 356.152344 113.023438 353.972656 113.34375 351.847656 C 114.191406 346.234375 116.835938 343.980469 121.917969 344.320312 C 126.414062 344.621094 129.09375 347.542969 129.136719 352.792969 C 129.234375 365.769531 129.15625 378.746094 129.148438 391.726562 C 129.148438 394.722656 129.148438 397.714844 129.148438 400.710938 Z M 129.121094 400.710938 "/>
<path fill-rule="evenodd" fill="rgb(100%, 100%, 100%)" fill-opacity="1" d="M 891.640625 402.1875 C 891.640625 416.488281 891.664062 430.789062 891.628906 445.089844 C 891.613281 451.261719 889.601562 453.757812 884.679688 453.976562 C 879.535156 454.207031 876.785156 451.738281 876.488281 445.566406 C 876.125 437.933594 876.324219 430.273438 876.296875 422.625 C 876.230469 401.507812 876.1875 380.390625 876.097656 359.273438 C 876.085938 356.75 876.125 354.257812 877.34375 351.992188 C 878.832031 349.222656 881.265625 348.011719 884.355469 348.152344 C 887.285156 348.285156 889.363281 349.726562 890.539062 352.441406 C 891.558594 354.792969 891.597656 357.28125 891.59375 359.785156 C 891.582031 373.917969 891.589844 388.050781 891.589844 402.1875 Z M 891.640625 402.1875 "/>
<path fill-rule="evenodd" fill="rgb(100%, 100%, 100%)" fill-opacity="1" d="M 500.089844 390.917969 C 491.609375 390.917969 483.125 390.875 474.648438 390.9375 C 471.78125 390.960938 470.464844 389.910156 470.359375 386.871094 C 469.792969 370.578125 469.066406 354.292969 468.453125 338 C 468.398438 336.5625 467.789062 334.488281 469.136719 333.816406 C 471.03125 332.875 471.925781 335.121094 472.921875 336.257812 C 487.515625 352.917969 500.953125 370.503906 514.386719 388.09375 C 516.292969 390.585938 516.09375 391.910156 512.570312 391.828125 C 508.410156 391.734375 504.246094 391.808594 500.085938 391.808594 C 500.085938 391.511719 500.085938 391.214844 500.089844 390.917969 "/>
<path fill-rule="evenodd" fill="rgb(100%, 100%, 100%)" fill-opacity="1" d="M 137.613281 411.199219 C 137.613281 400.0625 137.585938 388.929688 137.621094 377.792969 C 137.640625 371.527344 139.980469 368.394531 144.628906 368.21875 C 149.339844 368.039062 153.152344 372.113281 153.171875 377.886719 C 153.253906 400.488281 153.238281 423.089844 153.164062 445.691406 C 153.144531 450.570312 150.140625 453.308594 145.289062 453.371094 C 140.503906 453.433594 137.667969 450.726562 137.621094 445.597656 C 137.519531 434.132812 137.589844 422.664062 137.589844 411.199219 Z M 137.613281 411.199219 "/>
<path fill-rule="evenodd" fill="rgb(100%, 100%, 100%)" fill-opacity="1" d="M 88.5625 403.234375 C 88.5625 392.433594 88.519531 381.632812 88.582031 370.835938 C 88.617188 365.148438 90.796875 362.609375 95.5 362.429688 C 100.53125 362.238281 103.964844 365.21875 103.996094 370.714844 C 104.117188 392.644531 104.089844 414.582031 103.910156 436.511719 C 103.863281 442.210938 100.882812 445.09375 96.246094 444.949219 C 91.894531 444.816406 88.730469 441.414062 88.660156 436.136719 C 88.511719 425.171875 88.613281 414.203125 88.613281 403.234375 Z M 88.5625 403.234375 "/>
<path fill-rule="evenodd" fill="rgb(100%, 100%, 100%)" fill-opacity="1" d="M 900.035156 403.1875 C 900.035156 392.886719 899.996094 382.582031 900.050781 372.28125 C 900.085938 366.332031 902.757812 362.828125 907.199219 362.648438 C 911.050781 362.496094 914.460938 366.078125 915.273438 371.300781 C 915.527344 372.933594 915.53125 374.613281 915.53125 376.269531 C 915.5625 395.046875 915.566406 413.828125 915.578125 432.601562 C 915.578125 433.433594 915.589844 434.265625 915.566406 435.097656 C 915.386719 440.855469 912.285156 444.441406 907.433594 444.5 C 902.90625 444.554688 900.238281 441.246094 900.097656 435.09375 C 899.972656 429.445312 900.042969 423.792969 900.03125 418.144531 C 900.027344 413.160156 900.03125 408.171875 900.035156 403.1875 "/>
<path fill-rule="evenodd" fill="rgb(100%, 100%, 100%)" fill-opacity="1" d="M 865.648438 407.242188 C 865.644531 416.707031 865.683594 426.167969 865.628906 435.632812 C 865.597656 440.796875 863.398438 443.496094 859.398438 443.542969 C 855.234375 443.59375 853.160156 441.097656 853.15625 435.800781 C 853.140625 417.039062 853.160156 398.277344 853.195312 379.515625 C 853.195312 378.199219 853.289062 376.847656 853.597656 375.574219 C 854.386719 372.316406 856.277344 370.109375 859.90625 370.546875 C 863.484375 370.976562 865.621094 373.097656 865.636719 376.859375 C 865.671875 386.984375 865.648438 397.113281 865.648438 407.242188 "/>
<path fill-rule="evenodd" fill="rgb(100%, 100%, 100%)" fill-opacity="1" d="M 924.042969 405.707031 C 924.039062 399.886719 923.902344 394.066406 924.082031 388.25 C 924.222656 383.621094 927.007812 380.953125 931.207031 380.914062 C 935.1875 380.871094 938.371094 383.757812 938.496094 388.191406 C 938.8125 399.488281 939.703125 410.777344 939.109375 422.082031 C 938.90625 425.996094 938.371094 429.933594 933.484375 430.867188 C 928.457031 431.832031 924.28125 428.515625 924.089844 423.164062 C 923.882812 417.351562 924.042969 411.527344 924.042969 405.707031 "/>
<path fill-rule="evenodd" fill="rgb(100%, 100%, 100%)" fill-opacity="1" d="M 843.4375 409.46875 C 843.4375 415.285156 843.546875 421.101562 843.40625 426.910156 C 843.273438 432.429688 841.132812 434.859375 836.699219 435 C 831.914062 435.148438 829.859375 433.246094 829.699219 427.496094 C 829.363281 415.390625 829.230469 403.277344 829.207031 391.167969 C 829.195312 386.296875 831.855469 383.496094 835.847656 383.453125 C 840.128906 383.40625 843.351562 386.691406 843.453125 391.527344 C 843.574219 397.507812 843.480469 403.488281 843.480469 409.46875 Z M 843.4375 409.46875 "/>
<path fill-rule="evenodd" fill="rgb(100%, 100%, 100%)" fill-opacity="1" d="M 80.144531 407.148438 C 80.144531 412.304688 80.265625 417.464844 80.113281 422.617188 C 79.953125 427.984375 77.015625 431.109375 72.390625 431.214844 C 68.089844 431.308594 65.152344 428.402344 65.121094 422.894531 C 65.058594 411.429688 65.328125 399.960938 65.664062 388.496094 C 65.777344 384.558594 68.273438 382.527344 72.199219 382.445312 C 76.488281 382.355469 79.496094 384.4375 79.773438 388.710938 C 80.171875 394.832031 79.875 401 79.875 407.148438 Z M 80.144531 407.148438 "/>
<path fill-rule="evenodd" fill="rgb(100%, 100%, 100%)" fill-opacity="1" d="M 176.195312 410.796875 C 176.195312 417.277344 176.140625 423.761719 176.210938 430.242188 C 176.257812 434.476562 174.382812 436.816406 170.066406 437.015625 C 165.8125 437.210938 162.839844 435 162.777344 430.640625 C 162.59375 417.183594 162.617188 403.71875 162.851562 390.261719 C 162.925781 386.132812 165.652344 384.085938 169.882812 384.277344 C 174.132812 384.46875 176.078125 386.652344 176.273438 390.90625 C 176.578125 397.542969 176.707031 404.167969 176.195312 410.796875 "/>
<path fill-rule="evenodd" fill="rgb(100%, 100%, 100%)" fill-opacity="1" d="M 312.820312 427.183594 C 312.820312 432.332031 312.992188 437.488281 312.761719 442.625 C 312.597656 446.324219 310.453125 448.332031 306.554688 448.195312 C 302.898438 448.070312 300.328125 446.636719 300.335938 442.648438 C 300.363281 432.03125 300.390625 421.414062 300.746094 410.804688 C 300.859375 407.453125 303.195312 405.347656 306.765625 405.449219 C 310.425781 405.554688 312.820312 407.535156 312.980469 411.238281 C 313.214844 416.542969 313.039062 421.867188 313.039062 427.183594 Z M 312.820312 427.183594 "/>
<path fill-rule="evenodd" fill="rgb(100%, 100%, 100%)" fill-opacity="1" d="M 743.757812 426.070312 C 743.757812 430.722656 743.777344 435.375 743.753906 440.03125 C 743.734375 443.835938 741.921875 445.851562 737.988281 445.992188 C 733.867188 446.144531 731.578125 444.21875 731.515625 440.195312 C 731.371094 430.886719 731.324219 421.578125 731.488281 412.273438 C 731.554688 408.394531 733.308594 405.4375 737.824219 405.578125 C 741.59375 405.691406 744.105469 408.789062 744.125 413.128906 C 744.144531 417.441406 744.128906 421.753906 744.128906 426.066406 C 744.003906 426.066406 743.882812 426.066406 743.757812 426.070312 "/>
<path fill-rule="evenodd" fill="rgb(100%, 100%, 100%)" fill-opacity="1" d="M 424.96875 427.207031 C 424.96875 431.851562 424.898438 436.5 424.988281 441.144531 C 425.074219 445.34375 422.699219 447.238281 418.941406 447.570312 C 414.714844 447.945312 412.757812 445.347656 412.722656 441.523438 C 412.636719 432.070312 412.703125 422.609375 412.949219 413.160156 C 413.042969 409.449219 415.035156 406.566406 419.066406 406.710938 C 423.222656 406.859375 425.105469 409.589844 425.019531 413.761719 C 424.929688 418.242188 425 422.726562 425 427.207031 Z M 424.96875 427.207031 "/>
<path fill-rule="evenodd" fill="rgb(100%, 100%, 100%)" fill-opacity="1" d="M 335.113281 428.148438 C 334.773438 433.625 334.328125 439.09375 334.128906 444.574219 C 333.988281 448.410156 332.117188 450.6875 328.417969 450.746094 C 324.332031 450.804688 321.765625 448.445312 321.789062 444.246094 C 321.832031 437.4375 322.199219 430.628906 322.421875 423.816406 C 322.492188 421.65625 322.394531 419.476562 322.628906 417.335938 C 323.054688 413.472656 325.183594 411.214844 329.230469 411.402344 C 333.097656 411.582031 334.804688 414.023438 334.921875 417.652344 C 335.035156 421.140625 334.945312 424.636719 334.945312 428.132812 C 335.003906 428.136719 335.058594 428.144531 335.113281 428.148438 "/>
<path fill-rule="evenodd" fill="rgb(100%, 100%, 100%)" fill-opacity="1" d="M 289.890625 419.664062 C 289.890625 423.816406 290.039062 427.976562 289.851562 432.121094 C 289.671875 436.03125 287.972656 438.835938 283.527344 438.914062 C 279.132812 438.996094 277.003906 436.488281 277.042969 432.433594 C 277.128906 423.644531 277.355469 414.851562 277.890625 406.078125 C 278.101562 402.601562 280.242188 400.109375 284.171875 400.472656 C 287.8125 400.8125 289.917969 403.035156 290.042969 406.707031 C 290.191406 411.023438 290.078125 415.34375 290.078125 419.664062 Z M 289.890625 419.664062 "/>
<path fill-rule="evenodd" fill="rgb(100%, 100%, 100%)" fill-opacity="1" d="M 719.777344 424.683594 C 719.777344 428.828125 719.785156 432.980469 719.777344 437.125 C 719.769531 441.195312 717.597656 443.417969 713.65625 443.359375 C 709.699219 443.304688 707.34375 440.890625 707.667969 436.945312 C 708.363281 428.492188 707.839844 420.03125 708.199219 411.582031 C 708.355469 407.902344 710.347656 405.609375 714.109375 405.546875 C 718.128906 405.476562 719.582031 408.203125 719.6875 411.742188 C 719.816406 416.050781 719.71875 420.367188 719.71875 424.683594 Z M 719.777344 424.683594 "/>
<path fill-rule="evenodd" fill="rgb(100%, 100%, 100%)" fill-opacity="1" d="M 186.523438 412.28125 C 186.523438 409.125 186.40625 405.960938 186.550781 402.8125 C 186.738281 398.753906 188.65625 396.320312 193.070312 396.339844 C 197.535156 396.359375 200.019531 398.554688 200.105469 402.933594 C 200.234375 409.242188 200.253906 415.570312 199.914062 421.867188 C 199.644531 426.878906 196.726562 429.929688 193.230469 429.695312 C 189.34375 429.429688 186.617188 426.058594 186.503906 421.253906 C 186.433594 418.265625 186.492188 415.273438 186.492188 412.28125 Z M 186.523438 412.28125 "/>
<path fill-rule="evenodd" fill="rgb(100%, 100%, 100%)" fill-opacity="1" d="M 804.105469 412.957031 C 804.105469 410.136719 803.996094 407.3125 804.132812 404.496094 C 804.304688 400.910156 806.085938 398.480469 809.820312 398.101562 C 813.683594 397.710938 816.394531 399.539062 817.054688 403.359375 C 818.300781 410.585938 817.984375 417.917969 817.277344 425.15625 C 816.949219 428.519531 813.90625 429.925781 810.59375 429.875 C 806.75 429.816406 804.824219 427.210938 804.410156 423.882812 C 803.964844 420.292969 804.308594 416.601562 804.308594 412.957031 C 804.242188 412.957031 804.171875 412.957031 804.105469 412.957031 "/>
<path fill-rule="evenodd" fill="rgb(100%, 100%, 100%)" fill-opacity="1" d="M 963.65625 405.980469 C 963.65625 407.972656 963.675781 409.96875 963.648438 411.960938 C 963.597656 415.828125 961.773438 418.351562 957.859375 418.828125 C 953.871094 419.316406 950.878906 417.480469 949.804688 413.667969 C 948.382812 408.636719 948.507812 403.421875 949.929688 398.394531 C 950.898438 394.960938 953.5625 393.191406 957.152344 393.605469 C 960.820312 394.027344 963.378906 395.925781 963.519531 399.996094 C 963.589844 401.988281 963.535156 403.984375 963.535156 405.980469 Z M 963.65625 405.980469 "/>
<path fill-rule="evenodd" fill="rgb(100%, 100%, 100%)" fill-opacity="1" d="M 791.65625 420.148438 C 791.65625 422.3125 791.734375 424.480469 791.640625 426.636719 C 791.453125 430.902344 789.09375 432.9375 784.890625 432.933594 C 780.679688 432.929688 779.007812 430.699219 779.050781 426.613281 C 779.101562 422.132812 778.671875 417.644531 778.808594 413.171875 C 778.933594 408.929688 781.652344 406.773438 785.699219 406.964844 C 789.652344 407.148438 791.496094 409.851562 791.675781 413.660156 C 791.78125 415.820312 791.695312 417.988281 791.695312 420.148438 Z M 791.65625 420.148438 "/>
<path fill-rule="evenodd" fill="rgb(100%, 100%, 100%)" fill-opacity="1" d="M 55.160156 408.148438 C 55.160156 410.132812 55.308594 412.132812 55.128906 414.105469 C 54.785156 417.800781 52.507812 419.734375 48.910156 419.960938 C 45.074219 420.203125 42.476562 418.394531 41.75 414.574219 C 40.914062 410.152344 41.113281 405.65625 41.734375 401.21875 C 42.277344 397.339844 44.839844 395.394531 48.636719 395.507812 C 52.46875 395.625 54.757812 397.863281 55.152344 401.695312 C 55.371094 403.824219 55.191406 405.996094 55.191406 408.148438 Z M 55.160156 408.148438 "/>
<path fill-rule="evenodd" fill="rgb(100%, 100%, 100%)" fill-opacity="1" d="M 435.34375 425.085938 C 435.542969 422.113281 435.519531 419.105469 436.003906 416.179688 C 436.527344 413.03125 438.519531 411.253906 441.929688 411.375 C 445.179688 411.492188 446.542969 413.339844 447.089844 416.339844 C 447.992188 421.285156 447.90625 426.257812 447.777344 431.226562 C 447.664062 435.402344 445.238281 437.726562 441.128906 437.703125 C 436.953125 437.679688 435.417969 434.957031 435.480469 431.070312 C 435.515625 429.078125 435.488281 427.089844 435.488281 425.097656 C 435.4375 425.09375 435.390625 425.089844 435.34375 425.085938 "/>
<path fill-rule="evenodd" fill="rgb(100%, 100%, 100%)" fill-opacity="1" d="M 267.105469 417.207031 C 266.835938 419.675781 266.628906 422.660156 266.167969 425.605469 C 265.640625 428.976562 263.328125 430.355469 260.109375 430.234375 C 256.496094 430.09375 254.671875 427.96875 254.53125 424.476562 C 254.328125 419.320312 254.582031 414.175781 255.222656 409.046875 C 255.613281 405.953125 257.183594 404.089844 260.371094 404.074219 C 263.53125 404.058594 265.96875 405.507812 266.570312 408.734375 C 267.054688 411.324219 266.929688 414.023438 267.105469 417.207031 "/>
<path fill-rule="evenodd" fill="rgb(100%, 100%, 100%)" fill-opacity="1" d="M 755.15625 425.757812 C 755.425781 422.96875 755.558594 420.15625 755.996094 417.394531 C 756.441406 414.597656 758.257812 412.9375 761.125 412.980469 C 763.996094 413.023438 766.414062 414.207031 766.980469 417.3125 C 767.9375 422.546875 768 427.859375 767.105469 433.09375 C 766.527344 436.492188 764.167969 438.1875 760.648438 437.839844 C 757.320312 437.511719 755.667969 435.472656 755.519531 432.222656 C 755.417969 430.082031 755.5 427.925781 755.5 425.777344 C 755.386719 425.773438 755.273438 425.765625 755.15625 425.757812 "/>
<path fill-rule="evenodd" fill="rgb(100%, 100%, 100%)" fill-opacity="1" d="M 390.347656 423.199219 C 390.5 420.726562 390.453125 418.21875 390.855469 415.789062 C 391.394531 412.558594 393.078125 410.273438 396.800781 410.378906 C 400.488281 410.476562 402.105469 412.714844 402.472656 416.046875 C 402.96875 420.507812 402.691406 424.953125 402.074219 429.398438 C 401.570312 433.066406 399.25 434.585938 395.929688 434.527344 C 392.644531 434.46875 390.808594 432.40625 390.550781 429.15625 C 390.394531 427.183594 390.523438 425.1875 390.523438 423.203125 C 390.464844 423.203125 390.40625 423.199219 390.347656 423.199219 "/>
<path fill-rule="evenodd" fill="rgb(100%, 100%, 100%)" fill-opacity="1" d="M 368.394531 424.699219 C 368.394531 423.375 368.410156 422.046875 368.390625 420.722656 C 368.339844 416.585938 370.582031 414.550781 374.511719 414.554688 C 378.425781 414.558594 380.695312 416.707031 380.804688 420.710938 C 380.882812 423.519531 380.796875 426.34375 380.65625 429.152344 C 380.464844 433.007812 378.625 435.5625 374.519531 435.402344 C 370.414062 435.238281 368.121094 433.03125 368.351562 428.675781 C 368.417969 427.351562 368.359375 426.023438 368.359375 424.699219 Z M 368.394531 424.699219 "/>
<path fill-rule="evenodd" fill="rgb(100%, 100%, 100%)" fill-opacity="1" d="M 358.953125 425.632812 C 358.953125 427.621094 359.160156 429.640625 358.90625 431.601562 C 358.476562 434.960938 356.1875 436.5 352.972656 436.332031 C 349.804688 436.167969 347.578125 434.539062 347.445312 431.105469 C 347.3125 427.625 347.285156 424.128906 347.449219 420.652344 C 347.625 416.84375 350.089844 414.796875 353.621094 414.851562 C 357.355469 414.90625 359.140625 417.472656 359.230469 421.152344 C 359.265625 422.644531 359.234375 424.136719 359.234375 425.632812 Z M 358.953125 425.632812 "/>
<path fill-rule="evenodd" fill="rgb(100%, 100%, 100%)" fill-opacity="1" d="M 457.339844 421.289062 C 457.546875 419.332031 456.585938 416.359375 458.769531 413.984375 C 460.429688 412.171875 462.738281 411.863281 464.75 412.574219 C 471.203125 414.847656 468.433594 420.558594 468.929688 424.972656 C 469.308594 428.375 468.402344 431.277344 464.320312 431.941406 C 459.875 432.667969 457.683594 431.023438 457.355469 426.542969 C 457.246094 425.058594 457.339844 423.5625 457.339844 421.289062 "/>
<path fill-rule="evenodd" fill="rgb(100%, 100%, 100%)" fill-opacity="1" d="M 696.734375 423.21875 C 696.738281 424.382812 696.753906 425.542969 696.734375 426.703125 C 696.660156 430.632812 694.816406 433.066406 690.75 433.144531 C 686.839844 433.21875 685.664062 430.398438 685.5 427.191406 C 685.359375 424.398438 685.628906 421.570312 685.90625 418.777344 C 686.226562 415.570312 687.835938 413.304688 691.355469 413.683594 C 694.769531 414.050781 696.636719 416.214844 696.722656 419.738281 C 696.75 420.898438 696.726562 422.058594 696.734375 423.21875 "/>
<path fill-rule="evenodd" fill="rgb(100%, 100%, 100%)" fill-opacity="1" d="M 22.667969 399.757812 C 26.679688 399.613281 29.96875 402.960938 30.21875 407.441406 C 30.484375 412.214844 27.464844 416.660156 23.867188 416.785156 C 19.960938 416.921875 15.957031 412.640625 15.785156 408.144531 C 15.621094 403.949219 18.953125 399.894531 22.667969 399.757812 "/>
<path fill-rule="evenodd" fill="rgb(100%, 100%, 100%)" fill-opacity="1" d="M 979.320312 413.902344 C 975.253906 413.792969 972.800781 410.714844 973.007812 405.980469 C 973.183594 401.953125 975.808594 399.390625 979.652344 399.496094 C 983.652344 399.605469 986.679688 403.011719 986.46875 407.160156 C 986.261719 411.222656 983.308594 414.007812 979.320312 413.902344 "/>
<path fill-rule="evenodd" fill="rgb(100%, 100%, 100%)" fill-opacity="1" d="M 502.289062 418.269531 C 502.433594 413.871094 505.019531 411.199219 508.949219 411.390625 C 512.929688 411.585938 515.285156 414.621094 515.128906 419.359375 C 515 423.371094 511.96875 426.222656 508.105469 425.96875 C 504.347656 425.71875 502.140625 422.800781 502.289062 418.269531 "/>
<path fill-rule="evenodd" fill="rgb(100%, 100%, 100%)" fill-opacity="1" d="M 210.21875 415.230469 C 210.15625 410.832031 212.605469 407.730469 216.269531 407.578125 C 219.886719 407.421875 222.777344 410.296875 222.839844 414.109375 C 222.910156 418.464844 220.324219 421.785156 216.851562 421.796875 C 213.207031 421.808594 210.273438 418.902344 210.21875 415.230469 "/>
<path fill-rule="evenodd" fill="rgb(100%, 100%, 100%)" fill-opacity="1" d="M 652.789062 419.171875 C 652.140625 422.429688 651.078125 425.539062 646.769531 425.472656 C 642.5 425.402344 639.253906 422.167969 639.40625 418.363281 C 639.546875 414.714844 642.558594 412.101562 646.382812 412.3125 C 650.585938 412.546875 652.585938 414.882812 652.789062 419.171875 "/>
<path fill-rule="evenodd" fill="rgb(100%, 100%, 100%)" fill-opacity="1" d="M 667.960938 427.933594 C 664.203125 427.910156 661.222656 424.96875 661.324219 421.378906 C 661.417969 418.097656 664.859375 414.671875 668.117188 414.621094 C 671.582031 414.566406 674.6875 417.8125 674.605469 421.402344 C 674.523438 425.25 671.765625 427.960938 667.960938 427.933594 "/>
<path fill-rule="evenodd" fill="rgb(100%, 100%, 100%)" fill-opacity="1" d="M 492.125 422.011719 C 492.035156 424.945312 490.996094 427.976562 486.578125 427.953125 C 482.414062 427.929688 480.746094 425.246094 480.582031 421.46875 C 480.394531 417.140625 482.75 414.285156 486.332031 414.253906 C 490.242188 414.21875 492.128906 416.496094 492.125 422.011719 "/>
<path fill-rule="evenodd" fill="rgb(100%, 100%, 100%)" fill-opacity="1" d="M 244.136719 415.300781 C 244.132812 419.894531 241.808594 423.019531 238.460938 422.683594 C 234.722656 422.308594 232.464844 420.246094 232.472656 416.203125 C 232.480469 412.246094 235.128906 408.78125 238.378906 409.027344 C 242.21875 409.3125 244.425781 411.390625 244.136719 415.300781 "/>
</g>
</defs>
<g clip-path="url(#clip-0)">
<use xlink:href="#source-5" transform="matrix(1, 0, 0, 1, -0.000000000000000014, 0)"/>
</g>
</svg>
