<?xml version="1.0" encoding="utf-8"?>
<!-- Generator: Adobe Illustrator 16.0.0, SVG Export Plug-In . SVG Version: 6.00 Build 0)  -->
<!DOCTYPE svg PUBLIC "-//W3C//DTD SVG 1.1//EN" "http://www.w3.org/Graphics/SVG/1.1/DTD/svg11.dtd">
<svg version="1.1" id="Layer_1" xmlns="http://www.w3.org/2000/svg" xmlns:xlink="http://www.w3.org/1999/xlink" x="0px" y="0px"
	 width="612px" height="353.982px" viewBox="0 0 612 353.982" enable-background="new 0 0 612 353.982" xml:space="preserve">
<g>
	<path fill-rule="evenodd" clip-rule="evenodd" fill="none" d="M325.992,277.541c-0.227-0.293-0.454-0.587-0.682-0.88
		c-0.505-0.42-0.892-1.199-1.742-0.578c0.531-1.53-0.921-1.906-1.64-2.575c-5.993-5.589-12.628-10.287-19.813-14.242
		c-12.33-6.786-25.259-8.075-38.64-4.025c-7.698,2.329-14.797,6.116-21.719,10.191c-3.071,1.525-6.54,2.174-9.364,4.242
		c-0.223-0.046-0.415,0.013-0.573,0.174c-1.393,0.369-2.89,0.435-4.071,1.41c-14.518,3.375-27.497-0.534-39.811-8.144
		c-5.919-3.658-11.982-7.138-18.211-10.229c-14.045-6.972-28.533-8.555-43.417-2.615c-6.972,2.782-13.299,6.787-19.84,10.393
		c-9,4.961-18.376,8.918-28.849,9.055c-11.239,0.147-21.579-3.222-31.29-8.725c-1.049-0.594-1.891-1.961-3.715-0.959
		c3.561,2.542,6.905,5.15,10.461,7.428c14.156,9.068,29.044,11.289,44.993,4.945c8.18-3.253,15.593-7.924,23.411-11.836
		c11.651-5.829,23.667-7.944,36.328-3.944c6.935,2.189,13.185,5.848,19.382,9.568c9.603,5.768,18.863,12.254,30.279,14.143
		c8.136,1.347,16.13,1.58,23.563-2.853c5.146,0.071,8.952-3.14,13.158-5.37c2.512-1.311,5.046-2.579,7.532-3.938
		c15.752-8.608,32.016-11.289,49.234-4.612c8.123,3.151,15.464,7.641,22.661,12.434c0.422,0.688,0.911,1.183,1.757,0.612
		c-0.503,0.886,0.161,0.813,0.696,0.849l0.035,0.201C326.106,277.66,325.995,277.537,325.992,277.541z M167.991,195.095
		l-0.004-0.005c0.516,0.526,1.032,1.052,1.548,1.577l-0.008-0.009c1.107,1.136,2.215,2.27,3.322,3.404
		c0.048,0.14,0.142,0.234,0.281,0.282c0.351,0.341,0.702,0.682,1.053,1.022l-0.019-0.02c1.064,1.011,2.129,2.022,3.194,3.032
		l0.016,0.016c0.633,0.634,1.267,1.268,1.9,1.9l0.093,0.077c0.322,0.223,0.644,0.446,0.966,0.669
		c11.337,11.85,28.212,14.914,46.481,14.567c-17.489-6.383-30.731-18.487-43.474-31.752c3.831-1.741,7.719-2.937,10.15-6.42
		c3.871-5.548,3.387-14.559-1.5-21.512c-5.993-8.525-14.304-13.589-24.425-15.886c-15.694-3.563-31.406-7.06-46.675-12.258
		c-3.835-1.305-7.765-2.335-12.053-3.612c7.31,21.553,16.571,41.506,29.004,59.87c6.692,9.885,14.496,18.833,24.679,25.396
		c5.125,3.878,11.144,5.144,18.155,6.417c-3.617-3.435-6.557-6.225-9.497-9.018c0.003-0.263-0.105-0.468-0.324-0.613
		c-3.231-4.732-6.462-9.464-9.694-14.196l-0.139,0.146l0.155-0.129c-1.111-2.445-2.221-4.891-3.494-7.693
		c3.688,0.384,6.76,0.822,8.943,3.524l0.261,0.223C167.255,194.428,167.624,194.761,167.991,195.095z M94.682,114.963
		c52.824,20.084,107.235,29.575,163.94,30.512c-1.901-2.427-3.616-4.1-4.7-6.112c-2.044-3.793-5.132-4.794-9.209-4.929
		c-18.756-0.623-37.384-2.777-55.902-5.691c-31.949-5.027-62.756-14.301-92.926-25.793c-6.293-2.396-12.504-5.011-19.207-7.708
		c1.018,7.316,3.057,13.688,4.995,20.066c7.84,25.804,17.986,50.544,33.972,72.537c7.962,10.951,16.846,20.944,29.01,27.465
		c3.746,2.652,8.034,3.927,12.572,4.748 M149.392,215.132 M94.607,219.238c-0.535,4.362-0.457,8.73-0.111,13.1
		c-0.059,3.883-0.104,7.767-0.183,11.649c-0.04,1.941,0.231,4.036,2.519,4.074c2.303,0.038,2.64-2.045,2.635-3.996
		c-0.016-6.222-0.019-12.442-0.015-18.664c0.002-3.888,0.006-7.776,0.048-11.664c0.02-1.836-0.836-3.183-2.601-3.244
		c-1.662-0.058-2.416,1.453-2.486,2.947C94.324,215.366,94.529,217.305,94.607,219.238z M453.01,104.891
		c3.043-4.197,2.916-4.021-1.842-7.441c-3.957-2.843-3.932,1.046-5.291,2.703c-5.695,7.906-11.346,15.844-17.143,23.674
		c-0.633,0.855-0.388,1.254-0.123,1.907c-4.031,1.493-8.32,1.316-12.488,1.933c-15.301,2.264-30.684,3.849-46.093,5.084
		c-13.373,1.071-26.785,1.645-40.18,2.438c-16.974-0.007-33.945-0.014-50.918-0.015c-0.515,0-1.169-0.119-1.517,0.142
		c-0.663,0.499-0.454,1.081,0.288,1.435c1.575,2.041,3.361,3.957,4.672,6.155c1.529,2.567,3.52,3.159,6.402,3.171
		c23.852,0.103,47.663-0.777,71.467-2.246c23.145-1.428,46.196-3.746,69.086-7.331c24.467-3.831,48.736-8.756,72.411-16.211
		c5.967-1.879,11.886-3.912,17.981-5.924c0.326,2.016-0.096,3.473-0.489,4.959c-3.568,13.493-7.894,26.728-13.517,39.51
		c-7.433,16.894-16.166,32.994-29.66,45.954c-6.239,5.994-12.916,11.501-20.501,15.861c7.549-0.829,14.138-4.021,20.27-8.145
		c14.145-9.512,24.396-22.543,32.821-37.124c13.831-23.937,21.736-50.112,28.714-76.625c0.334-1.269,0.349-2.622,0.548-4.218
		c-53.555,23.168-78.736,25.533-97.576,29.81c-0.597-1.722,0.874-2.611,1.63-3.684C445.66,115.415,449.775,110.463,453.01,104.891z
		 M244.547,294.706c1.567-0.137,2.883-0.865,4.249-1.601c9.85-5.302,19.23-11.654,30.473-13.896
		c8.879-1.769,17.563-0.926,26.237,1.557c5.683,1.627,11.2,3.463,16.233,6.619c0.739,0.463,1.915,0.661,2.427-0.293
		c0.527-0.985-0.315-1.617-1.152-2.113c-3.282-1.944-6.549-3.913-9.819-5.878c-5.488-3.294-11.336-5.86-17.613-6.958
		c-7.5-1.312-14.88-0.955-22.417,1.259c-10.948,3.217-19.979,9.73-29.606,15.274c-0.725,0.268-1.478,0.475-2.169,0.809
		c-11.901,5.765-24.245,6.818-36.952,3.32c-9.646-2.656-17.729-8.369-26.009-13.667c-8.551-5.472-17.434-10.302-27.65-11.63
		c-11.164-1.451-21.17,2.206-30.616,7.872c-7.983,4.785-15.807,9.958-25.079,12.044c-2.516,0.565-5.093,0.958-7.665,1.157
		c-2.516,0.194-5.059,0.042-7.591,0.042c9.183,2.636,18.209,2.147,26.976-1.339c4.925-1.96,9.792-4.115,14.516-6.516
		c14.648-7.442,29.211-8.036,43.741,0.173c4.504,2.544,8.979,5.157,13.336,7.943c14.262,9.122,29.181,15.876,46.724,12.868
		C231.979,300.579,238.724,298.848,244.547,294.706z M332.113,214.048c-0.999-1.185-2.035-2.342-2.992-3.561
		c-17.762-22.617-35.417-45.32-53.304-67.839c-12.736-16.033-25.31-32.187-37.591-48.569c-4.033-5.38-4.207-5.375-9.717-1.145
		c-0.103,0.079-0.2,0.167-0.31,0.233c-1.355,0.817-1.743,1.751-0.564,3.09c0.764,0.868,1.315,1.92,2.029,2.837
		c25.498,32.749,50.829,65.628,76.642,98.134c6.043,7.608,13.563,14.316,16.641,24.025c1.139,8.575,2.225,17.231,5.665,25.214
		c8.174,18.969,20.573,35.371,32.562,51.969c3.815,5.282,8.898,5.914,14.771,3.048c6.253-3.051,12.096-6.794,17.814-10.734
		c5.659-3.9,6.54-8.67,2.531-14.085c-9.366-12.647-18.927-25.132-29.271-37.022C357.271,228.436,345.353,220.386,332.113,214.048z
		 M446.604,214.578c10.067-2.113,17.778-8.073,24.221-15.621c16.303-19.102,25.935-41.695,33.375-65.362
		c0.321-1.023,1.468-2.296,0.274-3.156c-0.557-0.401-1.928,0.207-2.884,0.501c-17.287,5.32-34.812,9.675-52.621,12.837
		c-17.988,3.195-29.653,13.448-35.146,30.895c-3.141,9.972-6.291,19.955-11.105,29.309c-3.111,6.042-7.371,11.304-11.893,17.047
		c6.868,0.061,12.974-1.031,19.121-1.548c1.351-0.113,1.897-1.15,2.666-2.025c5.169-5.884,9.016-12.598,12.319-19.637
		c0.829-1.769,1.787-2.822,3.896-3.14c9.446-1.421,18.869-2.985,28.277-4.635c2.521-0.441,3.048,0.036,2.051,2.468
		c-2.912,7.102-6.63,13.713-11.407,19.725c-0.563,0.709-1.841,1.112-1.11,2.415c-0.124,0.011-0.246,0.022-0.37,0.035
		C446.381,214.65,446.492,214.614,446.604,214.578z M360.645,222.264c3.988,0,7.324-0.286,10.592,0.063
		c5.717,0.61,10.103-1.114,12.967-6.219c0.736-1.313,1.367-2.687,2.129-3.984c6.27-10.7,10.11-22.354,13.456-34.203
		c2.369-8.389,3.887-17.051,7.917-24.906c1.08-2.104,0.102-2.404-1.728-2.378c-7.099,0.098-14.019,2.085-21.155,1.953
		c-1.404-0.026-2.806,0.9-4.1,1.915c-7.575,5.934-14.076,13.052-21.446,19.205c-2.064,1.724-3.782,4.163-6.37,4.872
		c-3.436,0.94-4.534-2.582-6.637-4.29c-4.798-3.896-9.115-8.305-13.769-12.326c-2.625-2.269-4.595-6.238-8.185-6.447
		c-8.655-0.501-17.357-0.169-26.04-0.183c-1.603-0.002-2.51,1.112-1.404,2.099c2.671,2.384,3.718,5.713,5.642,8.509
		c5.474,7.953,12.395,14.737,18.014,22.57c0.868,1.211,1.884,2.671,3.539,2.931c1.288-4.304-0.966-8.597,0.563-12.671
		c3.138,1.558,5.771,3.154,8.118,5.199c5.513,4.8,11.089,9.527,16.567,14.366c1.675,1.479,2.952,1.465,4.657-0.02
		c6.748-5.874,13.571-11.661,20.438-17.396c1.108-0.925,2.361-2.811,3.888-1.805c1.322,0.871,0.731,2.948,0.288,4.348
		c-2.098,6.615-3.975,13.299-6.814,19.676C368.86,209.685,365.488,215.935,360.645,222.264z M194.897,149.904
		c6.572,6.165,10.156,12.977,11.575,20.797c0.923,5.087,1.359,10.269,1.884,15.421c1.214,11.924,6.716,21.111,17.467,26.648
		c16.017,8.249,33.525,8.993,51.023,9.629c1.643,0.061,1.889-0.797,1.926-2.148c0.082-2.977,0.308-5.948,0.421-8.923
		c0.202-5.282,0.186-5.305-5.124-5.335c-10.753-0.062-21.459-0.758-32.075-2.497c-4.592-0.751-8.811-2.295-11.153-6.814
		c-2.215-4.276-1.917-4.89,2.803-4.601c10.587,0.646,21.161,1.529,31.749,2.143c6.185,0.359,6.194,0.209,6.185-5.808
		c-0.011-7.882-0.011-7.881-8.118-8.079c-9.84-0.241-19.681-0.464-29.48-1.514c-6.645-0.711-6.416-0.746-7.678-7.552
		c-0.597-3.218,0.547-3.396,3.093-3.228c11.632,0.767,23.271,1.442,34.91,2.099c2.22,0.125,4.453,0.018,7.351,0.018
		c-3.506-5.003-6.592-9.302-9.547-13.688c-0.919-1.363-2.143-1.201-3.413-1.252C237.726,154.368,216.776,153.262,194.897,149.904z
		 M546.988,276.58c-4.457-2.979-8.086-5.585-11.885-7.91c-9.598-5.878-19.611-10.458-31.298-9.852
		c-9.341,0.484-17.458,4.353-25.436,8.728c-6.304,3.457-12.873,5.917-20.209,6.171c-11.389,0.394-20.78-4.461-29.757-10.692
		c-7.116-4.938-14.193-9.997-22.694-12.4c-2.378-0.673-4.742-1.795-8.26-0.801c8.203,3.085,14.752,7.346,20.984,12.12
		c5.239,4.014,10.276,8.291,15.846,11.868c14,8.992,28.418,10.384,43.37,2.465c3.775-1.999,7.505-4.088,11.324-5.994
		c8.308-4.143,16.96-5.935,26.328-4.531c8.479,1.271,16.092,4.597,23.631,8.364C541.133,275.213,543.222,276.882,546.988,276.58z
		 M207.294,40.883c-8.288,1.389-15.199,5.394-20.773,11.616c-1.293,1.443-2.258,3.568-0.679,5.657
		c1.593,2.108,3.662,2.69,6.144,1.839c0.855-0.293,1.72-0.578,2.542-0.951c2.495-1.134,4.101-0.481,5.809,1.805
		c6.554,8.778,13.369,17.363,20.084,26.021c3.418,4.408,3.262,4.139,8.177,1.338c3.085-1.758,2.473-2.953,0.726-5.196
		c-7.121-9.144-13.953-18.514-21.184-27.567c-1.894-2.371-1.382-3.42,0.719-4.732c0.653-0.408,1.279-0.87,1.867-1.368
		c1.946-1.649,2.102-3.791,1.387-6.011C211.366,41.018,209.41,40.826,207.294,40.883z M538.886,290.573
		c0.505-0.88,0.11-1.428-0.431-1.779c-6.084-3.971-12.4-7.396-19.63-8.886c-12.378-2.548-23.217,1.812-33.619,7.62
		c-12.28,6.856-24.896,8.674-38.425,4.229c-9.121-2.996-16.841-8.323-24.611-13.654c-2.132-1.463-4.027-3.383-6.86-3.711
		c2.492,2.96,5.232,5.591,8.004,8.188c7.996,7.489,16.663,13.841,27.482,16.753c13.688,3.684,26.019,0.111,37.861-6.647
		c5.6-3.196,11.339-6.087,17.761-7.385C517.919,282.977,528.593,285.682,538.886,290.573z M483.003,75.361
		c2.047-0.076,3.563-0.893,4.437-2.708c0.909-1.893,0.308-3.625-0.96-5.022c-4.16-4.582-9.158-7.888-15.109-9.767
		c-2.734-0.863-5.286-0.813-6.89,1.678c-1.665,2.587-0.051,4.815,1.967,6.359c2.409,1.844,1.932,3.313,0.337,5.427
		c-4.751,6.295-9.231,12.795-13.974,19.099c-1.418,1.888-1.55,3.405,0.676,4.173c1.922,0.664,3.382,4.842,6.176,0.96
		c4.081-5.667,8.625-11.018,12.439-16.851c2.493-3.813,4.747-6.382,9.446-3.56C481.953,75.392,482.557,75.304,483.003,75.361z
		 M289.891,188.426c-1.682,2.722-0.162,5.408-0.609,7.957c-1.375,7.846-0.306,15.751-0.651,23.619
		c-0.067,1.533,0.378,2.431,2.157,2.42c7.386-0.046,14.771-0.014,22.156-0.01c1.7,0,2.649-0.411,1.275-2.204
		C306.127,209.643,298.039,199.072,289.891,188.426z M84.149,227.769c-0.023,0-0.047,0-0.071,0c0,7.504,0.006,15.009-0.004,22.514
		c-0.002,1.863-0.028,4.107,2.302,4.215c2.608,0.121,2.837-2.314,2.764-4.231c-0.565-14.866-0.209-29.729-0.057-44.596
		c0.017-1.563,0.208-3.683-2.264-3.745c-2.508-0.063-2.718,1.688-2.699,3.719C84.192,213.018,84.149,220.394,84.149,227.769z
		 M523.692,228.922c-0.01,0-0.021,0-0.031,0c0-1.037-0.001-2.074,0-3.111c0.005-6.61,0.007-13.222,0.019-19.832
		c0.004-1.793-0.601-3.105-2.631-3.066c-1.811,0.034-2.39,1.272-2.458,2.876c-0.032,0.776-0.108,1.554-0.11,2.331
		c-0.052,13.998-0.099,27.996-0.128,41.995c-0.002,0.902,0.136,1.807,0.246,2.705c0.176,1.464,0.892,2.518,2.486,2.361
		c1.427-0.139,2.342-1.085,2.514-2.539c0.12-1.025,0.09-2.071,0.091-3.107C523.696,242.664,523.692,235.793,523.692,228.922z
		 M78.966,228.326c0.011,0,0.022,0,0.033,0c0-4.786,0.053-9.571-0.029-14.354c-0.027-1.603,0.228-3.792-2.132-3.899
		c-2.401-0.111-2.838,1.974-2.852,3.816c-0.07,9.563-0.043,19.127-0.04,28.689c0,1.95,0.505,3.967,2.736,3.924
		c2.077-0.04,2.311-2.017,2.297-3.823C78.942,237.895,78.966,233.11,78.966,228.326z M535.218,229.942c0.005,0,0.011,0,0.016,0
		c0-4.658-0.059-9.316,0.026-13.974c0.039-2.183-0.426-4.188-2.867-4.162c-2.311,0.024-2.537,2.154-2.537,4.054
		c0.002,9.445,0.001,18.891,0.014,28.336c0,1.744,0.126,3.6,2.381,3.74c2.438,0.15,2.958-1.629,2.964-3.631
		C535.226,239.517,535.218,234.73,535.218,229.942z M507.239,230.547c-0.011,0-0.021,0-0.033,0c0,4.273,0.054,8.548-0.023,12.819
		c-0.038,2.013,0.276,3.829,2.623,3.938c2.377,0.112,2.546-2.102,2.571-3.635c0.146-8.803,0.139-17.608,0.079-26.413
		c-0.012-1.543-0.427-3.348-2.462-3.341c-2.058,0.006-2.805,1.416-2.774,3.423C507.285,221.742,507.239,226.145,507.239,230.547z
		 M445.25,236.854c0.021,0,0.043,0,0.064,0c0-3.219,0.015-6.438-0.006-9.657c-0.01-1.532-0.424-3.011-2.227-3.027
		c-1.688-0.017-2.492,1.333-2.516,2.874c-0.097,6.566-0.147,13.135-0.099,19.698c0.011,1.608,1.062,2.648,2.769,2.509
		c1.597-0.132,2.046-1.26,2.026-2.738C445.222,243.293,445.25,240.073,445.25,236.854z M104.888,229.973
		c-0.039-0.001-0.077-0.001-0.116-0.001c0,3.101,0.087,6.204-0.033,9.301c-0.072,1.873,0.166,3.651,2.297,3.731
		c2.122,0.08,2.602-1.697,2.596-3.553c-0.018-6.336-0.05-12.67-0.001-19.006c0.014-1.823-0.488-3.145-2.506-3.101
		c-1.833,0.038-2.263,1.357-2.247,2.966C104.91,223.531,104.888,226.752,104.888,229.973z M546.933,230.689
		c0-2.701-0.007-5.402,0.004-8.104c0.007-1.777-1.004-2.518-2.641-2.661c-1.8-0.158-2.698,0.774-2.707,2.465
		c-0.03,5.414-0.024,10.829,0.058,16.241c0.025,1.68,0.711,3.16,2.719,3.033c1.907-0.12,2.537-1.543,2.556-3.263
		C546.948,235.829,546.928,233.259,546.933,230.689z M198.499,238.117c0-2.971-0.076-5.943,0.029-8.912
		c0.061-1.72-0.205-3.426-2.063-3.554c-1.996-0.138-2.799,1.423-2.792,3.394c0.022,6.198-0.003,12.396-0.021,18.593
		c-0.006,1.748,0.489,3.233,2.524,3.121c1.97-0.106,2.37-1.593,2.334-3.342C198.447,244.319,198.493,241.217,198.499,238.117z
		 M64.307,228.292c-0.076,0-0.152,0-0.228,0c0,2.847-0.062,5.696,0.027,8.54c0.042,1.36,0.552,2.517,2.229,2.67
		c1.683,0.153,2.545-0.856,2.581-2.23c0.146-5.7,0.167-11.404,0.119-17.106c-0.012-1.396-0.855-2.534-2.405-2.552
		c-1.869-0.021-2.33,1.297-2.325,2.899C64.313,223.105,64.307,225.699,64.307,228.292z M500.819,231.856c-0.019,0-0.038,0-0.056,0
		c0-2.321,0.048-4.645-0.016-6.964c-0.047-1.582-0.201-3.296-2.383-3.24c-1.876,0.049-2.745,1.339-2.768,3.086
		c-0.06,4.642-0.065,9.285-0.012,13.928c0.021,1.72,0.784,3.134,2.732,3.021c1.887-0.109,2.54-1.469,2.51-3.256
		C500.79,236.239,500.819,234.048,500.819,231.856z M252.008,238.23c-0.01,0-0.019,0-0.028,0c0,2.321,0.019,4.642-0.006,6.962
		c-0.017,1.487,0.589,2.709,2.09,2.715c1.488,0.005,2.708-0.821,2.704-2.64c-0.014-4.643-0.027-9.284-0.018-13.927
		c0.003-1.723-0.877-2.805-2.525-2.715c-1.387,0.075-2.251,1.073-2.227,2.642C252.036,233.587,252.008,235.909,252.008,238.23z
		 M434.755,236.717c-0.093-1.926-0.142-3.856-0.293-5.779c-0.101-1.27-0.724-2.203-2.116-2.349
		c-1.622-0.167-2.422,0.779-2.606,2.216c-0.478,3.721-0.305,7.459-0.045,11.186c0.091,1.298,0.867,2.142,2.289,2.108
		c1.54-0.036,2.384-0.898,2.515-2.383C434.644,240.055,434.68,238.384,434.755,236.717z M187.487,237.065c0.012,0,0.023,0,0.036,0
		c0-2.07-0.068-4.142,0.019-6.208c0.084-2-1.037-2.949-2.763-3c-1.672-0.051-2.01,1.368-2.022,2.735
		c-0.035,4.139-0.022,8.279-0.024,12.418c0,1.769,1.05,2.702,2.655,2.629c1.529-0.07,2.107-1.284,2.101-2.753
		C187.48,240.945,187.487,239.006,187.487,237.065z M456.629,236.899c0.027,0,0.054,0,0.081-0.001
		c-0.086-1.938-0.006-3.902-0.313-5.805c-0.212-1.312-1.211-2.458-2.674-2.378c-1.4,0.075-2.398,1.034-2.403,2.558
		c-0.012,3.366-0.012,6.737,0.138,10.099c0.076,1.734,1.419,2.433,2.968,2.408c1.57-0.026,2.232-1.074,2.208-2.605
		C456.611,239.75,456.629,238.325,456.629,236.899z M209.451,238.92c-0.006,0-0.011,0-0.017,0c0-1.807-0.031-3.613,0.009-5.417
		c0.036-1.589-0.318-2.86-2.193-2.988c-1.855-0.126-2.53,1.021-2.563,2.642c-0.077,3.736-0.11,7.477-0.125,11.215
		c-0.006,1.495,0.881,2.603,2.251,2.674c1.602,0.084,2.575-1.047,2.625-2.711C209.493,242.531,209.451,240.725,209.451,238.92z
		 M114.996,229.924c-0.017,0-0.034,0-0.051,0c0,1.921-0.06,3.844,0.021,5.76c0.055,1.291,0.799,2.275,2.122,2.329
		c1.49,0.06,2.494-0.927,2.539-2.362c0.12-3.729,0.104-7.466,0.036-11.199c-0.025-1.383-1.034-2.103-2.34-2.015
		c-1.195,0.082-2.287,0.601-2.317,2.076C114.967,226.317,114.996,228.121,114.996,229.924z M268.343,237.94c0.024,0,0.049,0,0.074,0
		c0-0.905-0.035-1.812,0.008-2.714c0.087-1.86-0.896-3.16-2.579-3.288c-1.881-0.143-2.587,1.318-2.569,3.101
		c0.021,2.067-0.039,4.137,0.034,6.201c0.047,1.327,0.756,2.139,2.181,2.225c1.524,0.093,2.563-0.577,2.813-2.043
		C268.498,240.292,268.343,239.103,268.343,237.94z M553.834,231.018c0.523,2.116-1.099,5.534,2.285,5.741
		c3.771,0.231,2.72-3.36,2.798-5.56c0.081-2.233,1.063-5.676-2.682-5.619C552.561,225.637,554.467,229.109,553.834,231.018z
		 M58.886,228.538c0.031,0,0.062,0,0.092,0c0-0.77-0.08-1.55,0.016-2.308c0.231-1.827-0.48-3.176-2.285-3.32
		c-1.949-0.155-2.567,1.293-2.532,3.056c0.044,2.179,0.01,4.359,0.136,6.532c0.072,1.259,0.759,2.156,2.148,2.274
		c1.46,0.125,2.187-0.854,2.373-2.015C59.053,231.384,58.886,229.948,58.886,228.538z M245.771,239.063
		c0-1.946,0.037-2.852-0.008-3.753c-0.077-1.563-0.614-2.867-2.425-2.888c-1.748-0.021-2.517,1.035-2.491,2.743
		c0.031,2.063-0.005,4.128,0.055,6.19c0.041,1.427,0.918,2.015,2.283,2.059c1.373,0.043,2.25-0.522,2.414-1.922
		C245.731,240.343,245.763,239.181,245.771,239.063z M489.167,231.943c-0.166-1.688,0.092-4.291-2.711-4.4
		c-2.419-0.093-2.452,2.153-2.396,4.032c0.062,2.072-0.992,4.974,2.228,5.258C489.287,237.096,488.828,234.238,489.167,231.943z
		 M220.976,238.265c-0.205-1.492,0.563-3.184-0.581-4.454c-1.159-1.286-2.556-1.013-3.69,0.154
		c-0.996,1.022-0.899,7.678,0.117,8.467c1.322,1.026,2.703,0.886,3.72-0.421C221.392,240.921,220.795,239.521,220.976,238.265z
		 M176.588,236.395c0.021,0.001,0.042,0.001,0.063,0.002c0-1.02,0.178-2.079-0.043-3.047c-0.306-1.336-1.162-2.566-2.729-1.973
		c-2.997,1.138-1.706,3.896-1.958,6.034c-0.194,1.645,0.127,3.261,2.072,3.566c1.51,0.237,2.37-0.815,2.576-2.267
		C176.677,237.954,176.588,237.167,176.588,236.395z M417.806,236.44c0.364,1.604,0.331,3.636,2.606,3.683
		c2.514,0.052,2.711-1.888,2.631-3.837c-0.079-1.892-0.237-3.854-2.738-3.874C417.474,232.388,418.345,234.843,417.806,236.44z
		 M129.994,230.23c0.051-1.465,0.439-3.358-2.052-3.55c-2.344-0.18-2.821,1.44-2.618,3.274c0.202,1.82-0.994,4.649,2.257,4.762
		C130.581,234.818,129.745,232.197,129.994,230.23z M275.028,237.069c-0.077,2.414-0.005,4.487,2.436,4.545
		c1.976,0.046,2.776-1.493,2.711-3.484c-0.061-1.868,0.016-3.938-2.458-4.028C275.606,234.023,275.007,235.708,275.028,237.069z
		 M467.903,235.989c-0.083-1.587,0.318-3.653-2.483-3.662c-2.257-0.008-2.329,1.761-2.374,3.234
		c-0.056,1.762-0.127,3.878,2.419,4.074C468.024,239.832,467.757,237.802,467.903,235.989z M231.436,234.705
		c-1.645,0.26-2.719,1.224-2.697,3.029c0.019,1.634,0.564,3.14,2.495,3.267c1.99,0.133,2.656-1.403,2.776-2.984
		C234.135,236.368,233.453,235.009,231.436,234.705z M163.172,238.228c1.902-0.332,2.577-1.509,2.586-3.288
		c0.008-1.722-0.789-2.762-2.477-2.729c-1.818,0.035-2.245,1.496-2.275,2.979C160.977,236.689,161.416,237.991,163.172,238.228z
		 M570.843,231.526c-0.197-1.362-0.626-2.684-2.142-2.841c-1.672-0.173-2.78,0.972-2.785,2.52c-0.003,1.225,0.602,2.579,2.284,2.62
		C569.765,233.864,570.484,232.885,570.843,231.526z M476.57,236.284c1.911-0.142,2.219-1.389,1.978-2.732
		c-0.236-1.323-0.512-2.914-2.411-2.822c-1.53,0.072-2.397,1.179-2.226,2.553C474.099,234.772,474.716,236.289,476.57,236.284z
		 M49.082,229.344c-0.003-1.908-0.143-3.513-2.099-3.386c-1.397,0.091-2.226,1.156-2.112,2.74c0.106,1.479,0.208,3.027,2.099,3.148
		C49.005,231.979,49.129,230.457,49.082,229.344z M411.229,236.1c-0.093-1.763-1.17-2.609-2.493-2.547
		c-1.505,0.071-1.984,1.39-1.931,2.797c0.053,1.376,0.845,2.131,2.182,2.108C410.585,238.432,411.081,237.281,411.229,236.1z
		 M289.644,235.55c-1.298,0.191-2.214,0.82-2.194,2.22c0.018,1.13,0.596,2.047,1.818,2.117c1.315,0.075,2.298-0.64,2.407-1.976
		C291.78,236.596,290.976,235.783,289.644,235.55z M138.355,228.363c-1.889-0.068-2.529,0.948-2.636,2.104
		c-0.122,1.322,0.774,2.137,2.112,2.144c1.309,0.005,2.151-0.698,2.171-2.087C140.023,229.155,139.263,228.454,138.355,228.363z
		 M39.534,228.703c-0.276-1.26-0.95-1.985-2.358-1.867c-1.458,0.124-1.976,1.185-1.964,2.326c0.013,1.225,0.949,2.263,2.147,2.219
		C38.794,231.328,39.377,230.083,39.534,228.703z M154.709,234.349c-0.413-0.776-0.744-1.858-1.97-1.84
		c-1.055,0.015-2.025,0.51-2.202,1.742c-0.174,1.213,0.489,2.046,1.603,2.229C153.517,236.706,154.158,235.674,154.709,234.349z"/>
	<path fill-rule="evenodd" clip-rule="evenodd" fill="#D2550B" d="M446.517,214.657c-0.732-1.31,0.546-1.713,1.108-2.422
		c4.777-6.012,8.495-12.623,11.407-19.725c0.997-2.432,0.471-2.909-2.051-2.468c-9.408,1.649-18.831,3.214-28.277,4.635
		c-2.109,0.317-3.067,1.371-3.896,3.14c-3.304,7.039-7.15,13.753-12.319,19.637c-0.769,0.875-1.315,1.912-2.666,2.025
		c-6.147,0.517-12.253,1.608-19.121,1.548c4.521-5.743,8.781-11.005,11.893-17.047c4.814-9.354,7.965-19.337,11.105-29.309
		c5.492-17.447,17.157-27.7,35.146-30.895c17.81-3.162,35.334-7.517,52.621-12.837c0.956-0.294,2.327-0.902,2.884-0.501
		c1.193,0.859,0.047,2.132-0.274,3.156c-7.44,23.667-17.072,46.261-33.375,65.362c-6.442,7.548-14.153,13.508-24.221,15.621
		L446.517,214.657z M434.79,179.376c9.105-1.419,19.018-3.002,28.946-4.468c1.407-0.208,1.482-1.144,1.881-2.055
		c2.064-4.736,3.066-9.802,4.636-14.691c0.871-2.709-0.294-2.796-2.444-2.379c-3.916,0.758-7.85,1.474-11.803,1.979
		c-11.831,1.511-19.975,7.501-23.654,19.08C431.856,178.399,431.104,180.054,434.79,179.376z"/>
	<path fill-rule="evenodd" clip-rule="evenodd" fill="#092D50" d="M329.726,135.189c13.395-0.794,26.807-1.367,40.18-2.438
		c15.409-1.235,30.792-2.82,46.093-5.084c4.168-0.617,8.457-0.44,12.489-1.933c4.104,1.2,7.737-1.573,11.722-1.386
		c18.84-4.276,44.021-6.642,97.576-29.81c-0.199,1.596-0.214,2.949-0.548,4.218c-6.978,26.513-14.883,52.689-28.714,76.625
		c-8.425,14.581-18.677,27.612-32.821,37.124c-6.132,4.123-12.721,7.315-20.27,8.145c7.585-4.36,14.262-9.867,20.501-15.861
		c13.494-12.96,22.228-29.06,29.66-45.954c5.623-12.782,9.948-26.018,13.517-39.51c0.394-1.486,0.815-2.943,0.489-4.959
		c-6.096,2.013-12.015,4.045-17.981,5.924c-23.675,7.455-47.944,12.38-72.411,16.211c-22.89,3.584-45.941,5.903-69.086,7.331
		c-23.805,1.469-47.615,2.349-71.467,2.246c-2.882-0.012-4.873-0.604-6.402-3.171c-1.311-2.199-3.097-4.114-4.673-6.155
		c1.127-1.298,2.649-0.772,4-0.776c14.702-0.046,29.404-0.03,44.105-0.073C327.046,135.898,328.55,136.38,329.726,135.189z"/>
	<path fill-rule="evenodd" clip-rule="evenodd" fill="#092D50" d="M162.396,215.435c-10.183-6.563-17.987-15.511-24.679-25.396
		c-12.433-18.363-21.695-38.316-29.004-59.87c4.289,1.276,8.218,2.307,12.053,3.612c15.269,5.198,30.981,8.696,46.675,12.258
		c10.122,2.297,18.433,7.361,24.425,15.886c4.888,6.953,5.372,15.964,1.5,21.512c-2.431,3.483-6.319,4.679-10.15,6.42
		c12.742,13.265,25.984,25.369,43.474,31.752c-18.269,0.347-35.144-2.718-46.481-14.567c-0.114-0.522-0.417-0.772-0.966-0.669
		c0,0-0.093-0.077-0.092-0.077c0.596-1.866-0.712-1.823-1.901-1.9l-0.016-0.016c-0.331-1.783-0.905-3.311-3.194-3.032l0.019,0.02
		c-0.06-0.641-0.091-1.312-1.053-1.022c-0.14-0.048-0.233-0.143-0.281-0.282c0.359-2.565-1.18-3.278-3.322-3.404l0.008,0.009
		c-0.001-1.031-0.517-1.558-1.548-1.577l0.004,0.005c-0.083-0.648-0.167-1.294-1.104-1l-0.261-0.223
		c-0.013-3.381-1.843-5.05-5.857-4.939c-1.458,0.039-3.528-1.077-4.288,1.264c-0.555,1.708,2.797,7.131,4.696,7.845l-0.155,0.129
		l0.139-0.146c0.587,3.785,2.839,6.717,5.021,9.667c1.3,1.757,1.916,4.262,4.672,4.529c0.219,0.146,0.328,0.351,0.324,0.613
		c-0.191,5.445-0.267,5.439-5.3,2.825C164.835,215.182,163.601,213.937,162.396,215.435z M141.448,155.266
		c2.989,6.683,5.497,12.309,8.026,17.925c0.492,1.091,1.207,2.139,2.458,2.285c6.146,0.716,12.177,2.611,18.474,1.832
		c5.389-0.667,7.764-5.123,5.126-9.838c-1.989-3.555-5.178-5.934-8.996-6.866C158.566,158.656,150.488,157.159,141.448,155.266z"/>
	<path fill-rule="evenodd" clip-rule="evenodd" fill="#092D50" d="M144.53,215.309c-12.164-6.521-21.048-16.514-29.01-27.465
		c-15.986-21.992-26.132-46.733-33.972-72.537c-1.938-6.378-3.978-12.75-4.995-20.066c6.703,2.697,12.913,5.311,19.207,7.708
		c30.169,11.492,60.977,20.766,92.926,25.793c18.518,2.914,37.146,5.069,55.902,5.691c4.078,0.135,7.165,1.136,9.209,4.929
		c1.084,2.013,2.799,3.685,4.7,6.112c-56.705-0.937-111.116-10.427-163.94-30.512c11.222,36.137,24.163,71.155,53.063,97.553
		C149.235,216.374,146.189,215.074,144.53,215.309z"/>
	<path fill-rule="evenodd" clip-rule="evenodd" fill="#E2B384" d="M360.52,222.264c4.844-6.329,8.216-12.579,11.129-19.123
		c2.84-6.377,4.717-13.061,6.814-19.676c0.443-1.399,1.034-3.477-0.288-4.348c-1.526-1.006-2.779,0.88-3.888,1.805
		c-6.867,5.735-13.69,11.522-20.438,17.396c-1.705,1.484-2.982,1.499-4.657,0.02c-5.479-4.839-11.055-9.566-16.567-14.366
		c-2.347-2.045-4.98-3.642-8.118-5.199c-1.529,4.074,0.725,8.367-0.563,12.671c-1.655-0.26-2.671-1.72-3.539-2.931
		c-5.619-7.833-12.54-14.617-18.014-22.57c-1.924-2.795-2.971-6.125-5.642-8.509c-1.105-0.986-0.199-2.101,1.404-2.099
		c8.683,0.014,17.385-0.319,26.04,0.183c3.59,0.208,5.56,4.178,8.185,6.447c4.653,4.021,8.971,8.43,13.769,12.326
		c2.103,1.708,3.201,5.23,6.637,4.29c2.588-0.709,4.306-3.147,6.37-4.872c7.37-6.152,13.871-13.271,21.446-19.205
		c1.294-1.014,2.695-1.94,4.1-1.915c7.137,0.132,14.057-1.854,21.155-1.953c1.829-0.026,2.808,0.274,1.728,2.378
		c-4.03,7.855-5.548,16.517-7.917,24.906c-3.346,11.849-7.187,23.503-13.456,34.203c-0.762,1.298-1.393,2.671-2.129,3.984
		c-2.864,5.104-7.25,6.829-12.967,6.219C367.844,221.978,364.508,222.264,360.52,222.264z"/>
	<path fill-rule="evenodd" clip-rule="evenodd" fill="#D2550B" d="M374.852,279.11c-0.994-4.577-5.102-6.995-7.431-10.673
		c-3.825-6.04-7.938-11.91-12.765-17.229c-5.288-7.897-10.918-15.539-16.981-22.859c-3.019-4.322-6.356-8.516-5.689-14.305
		c13.242,6.343,25.161,14.393,34.909,25.6c10.344,11.891,19.904,24.375,29.271,37.022c4.009,5.415,3.128,10.185-2.531,14.085
		c-5.719,3.94-11.562,7.684-17.814,10.734c-5.872,2.866-10.955,2.234-14.771-3.048c-11.988-16.598-24.388-33-32.562-51.969
		c-3.44-7.982-4.526-16.639-5.665-25.211c4.833,0.491,8.642,2.796,11.63,6.558c6.088,8.607,12.821,16.712,19.442,24.902
		c3.725,6.563,8.828,12.111,13.505,17.945C369.727,273.562,371.043,277.487,374.852,279.11"/>
	<path fill-rule="evenodd" clip-rule="evenodd" fill="#5D6330" d="M194.772,149.904c21.878,3.358,42.828,4.464,63.798,5.314
		c1.27,0.051,2.494-0.11,3.413,1.252c2.955,4.387,6.041,8.686,9.547,13.688c-2.897,0-5.131,0.107-7.351-0.018
		c-11.639-0.656-23.278-1.332-34.91-2.099c-2.545-0.168-3.689,0.01-3.093,3.228c1.262,6.806,1.033,6.841,7.678,7.552
		c9.799,1.05,19.64,1.272,29.48,1.514c8.107,0.198,8.107,0.197,8.118,8.079c0.009,6.017,0,6.167-6.185,5.808
		c-10.588-0.613-21.162-1.496-31.749-2.143c-4.72-0.289-5.019,0.324-2.803,4.601c2.342,4.52,6.562,6.063,11.153,6.814
		c10.616,1.739,21.322,2.436,32.075,2.497c5.31,0.03,5.326,0.053,5.124,5.335c-0.113,2.975-0.339,5.946-0.421,8.923
		c-0.037,1.352-0.283,2.209-1.926,2.148c-17.498-0.636-35.006-1.38-51.023-9.629c-10.75-5.537-16.253-14.725-17.467-26.648
		c-0.525-5.152-0.961-10.333-1.884-15.421C204.929,162.881,201.344,156.069,194.772,149.904z"/>
	<path fill-rule="evenodd" clip-rule="evenodd" fill="#092D50" d="M334.452,227.815c-2.988-3.762-6.797-6.066-11.63-6.558
		c-3.077-9.712-10.598-16.42-16.641-24.028c-25.813-32.506-51.144-65.385-76.642-98.134c-0.714-0.917-1.265-1.969-2.029-2.837
		c-1.179-1.339-0.792-2.272,0.564-3.09c0.11-0.066,0.207-0.154,0.31-0.233c5.51-4.23,5.684-4.235,9.717,1.145
		c12.281,16.382,24.855,32.536,37.591,48.569c17.887,22.519,35.542,45.222,53.304,67.839c0.957,1.219,1.993,2.376,2.991,3.56
		c-0.669,5.785,2.669,9.979,5.688,14.301C336.238,230.356,335.647,227.26,334.452,227.815z"/>
	<path fill-rule="evenodd" clip-rule="evenodd" fill="#092D50" d="M232.268,269.673c3.556,2.209,3.445,4.786-1.018,7.79
		c-7.434,4.433-15.77,4.22-23.906,2.873c-11.416-1.889-20.676-8.375-30.279-14.143c-6.198-3.721-12.448-7.379-19.382-9.568
		c-12.661-4-24.677-1.885-36.328,3.944c-7.818,3.912-15.231,8.583-23.411,11.836c-15.948,6.344-30.836,4.123-44.993-4.945
		c-3.556-2.277-6.9-4.886-10.461-7.428c1.824-1.002,2.666,0.365,3.715,0.959c9.711,5.503,20.051,8.872,31.29,8.725
		c10.473-0.137,19.849-4.094,28.849-9.055c6.541-3.605,12.868-7.61,19.84-10.393c14.884-5.939,29.372-4.356,43.417,2.615
		c6.229,3.092,12.292,6.571,18.211,10.229c12.314,7.609,25.293,11.519,39.811,8.144"/>
	<path fill-rule="evenodd" clip-rule="evenodd" fill="#5D6330" d="M244.422,294.706c-5.824,4.143-12.568,5.873-19.427,7.048
		c-17.543,3.008-32.462-3.746-46.724-12.868c-4.356-2.786-8.832-5.399-13.336-7.943c-14.53-8.209-29.093-7.615-43.741-0.173
		c-4.724,2.4-9.591,4.556-14.516,6.516c-8.767,3.486-17.793,3.975-26.976,1.339c2.532,0,5.075,0.152,7.591-0.042
		c2.571-0.199,5.148-0.592,7.665-1.157c9.272-2.086,17.096-7.259,25.079-12.044c9.446-5.666,19.452-9.323,30.616-7.872
		c10.217,1.328,19.099,6.158,27.65,11.63c8.279,5.298,16.363,11.011,26.009,13.667c12.707,3.498,25.051,2.444,36.952-3.32
		c0.691-0.334,1.444-0.541,2.168-0.809C243.609,290.711,242.19,293.008,244.422,294.706z"/>
	<path fill-rule="evenodd" clip-rule="evenodd" fill="#5D6330" d="M546.863,276.58c-3.767,0.303-5.855-1.366-8.055-2.465
		c-7.539-3.768-15.152-7.094-23.631-8.364c-9.368-1.403-18.021,0.389-26.328,4.531c-3.819,1.906-7.549,3.995-11.324,5.994
		c-14.952,7.919-29.37,6.527-43.37-2.465c-5.569-3.577-10.606-7.854-15.846-11.868c-6.232-4.774-12.781-9.035-20.984-12.12
		c3.518-0.994,5.882,0.128,8.26,0.801c8.501,2.403,15.578,7.462,22.694,12.4c8.977,6.231,18.368,11.086,29.757,10.692
		c7.336-0.254,13.905-2.714,20.209-6.171c7.978-4.375,16.095-8.243,25.436-8.728c11.687-0.606,21.7,3.974,31.298,9.852
		C538.777,270.995,542.406,273.6,546.863,276.58z"/>
	<path fill-rule="evenodd" clip-rule="evenodd" fill="#D2550B" d="M207.169,40.883c2.115-0.057,4.072,0.135,4.817,2.451
		c0.715,2.221,0.56,4.362-1.387,6.011c-0.588,0.498-1.214,0.96-1.867,1.368c-2.101,1.313-2.612,2.361-0.719,4.732
		c7.23,9.054,14.063,18.423,21.184,27.567c1.747,2.243,2.359,3.438-0.726,5.196c-4.915,2.801-4.759,3.069-8.177-1.338
		c-6.715-8.659-13.53-17.243-20.084-26.021c-1.708-2.287-3.314-2.939-5.809-1.805c-0.822,0.373-1.686,0.658-2.542,0.951
		c-2.482,0.851-4.551,0.269-6.144-1.839c-1.579-2.089-0.614-4.214,0.679-5.657C191.97,46.277,198.881,42.272,207.169,40.883z"/>
	<path fill-rule="evenodd" clip-rule="evenodd" fill="#D2550B" d="M538.761,290.573c-10.293-4.891-20.967-7.596-32.468-5.272
		c-6.422,1.298-12.161,4.188-17.761,7.385c-11.843,6.759-24.174,10.331-37.861,6.647c-10.819-2.912-19.486-9.264-27.482-16.753
		c-2.771-2.597-5.512-5.228-8.004-8.188c2.833,0.328,4.729,2.248,6.86,3.711c7.771,5.331,15.49,10.658,24.611,13.654
		c13.529,4.444,26.145,2.627,38.425-4.229c10.402-5.809,21.241-10.168,33.619-7.62c7.229,1.489,13.546,4.915,19.63,8.886
		C538.871,289.145,539.266,289.693,538.761,290.573z"/>
	<path fill-rule="evenodd" clip-rule="evenodd" fill="#5D6330" d="M482.878,75.361c-0.446-0.057-1.05,0.031-1.455-0.212
		c-4.699-2.822-6.953-0.253-9.446,3.56c-3.814,5.833-8.358,11.184-12.439,16.851c-2.794,3.882-4.254-0.296-6.176-0.96
		c-2.226-0.768-2.094-2.285-0.676-4.173c4.742-6.304,9.223-12.803,13.974-19.099c1.595-2.113,2.072-3.583-0.337-5.427
		c-2.018-1.544-3.632-3.772-1.967-6.359c1.604-2.491,4.155-2.541,6.89-1.678c5.951,1.879,10.949,5.185,15.109,9.767
		c1.268,1.397,1.869,3.129,0.96,5.022C486.441,74.468,484.925,75.286,482.878,75.361z"/>
	<path fill-rule="evenodd" clip-rule="evenodd" fill="#E2B384" d="M244.422,294.706c-2.232-1.697-0.813-3.994-0.99-6.029
		c9.627-5.544,18.659-12.058,29.607-15.274c7.538-2.214,14.918-2.57,22.417-1.259c6.276,1.098,12.125,3.664,17.613,6.958
		c3.271,1.965,6.537,3.934,9.819,5.878c0.837,0.496,1.68,1.128,1.152,2.113c-0.512,0.954-1.688,0.756-2.427,0.293
		c-5.033-3.156-10.551-4.992-16.233-6.619c-8.673-2.482-17.357-3.325-26.237-1.557c-11.242,2.241-20.623,8.594-30.473,13.896
		C247.306,293.84,245.99,294.569,244.422,294.706z"/>
	<path fill-rule="evenodd" clip-rule="evenodd" fill="#5D6330" d="M300.67,263.617c-17.219-6.677-33.482-3.996-49.234,4.612
		c-2.485,1.358-5.02,2.627-7.531,3.938c-0.811-2.228-1.623-4.455-2.435-6.683c6.922-4.075,14.021-7.862,21.719-10.191
		c13.38-4.05,26.31-2.761,38.64,4.025c7.185,3.955,13.82,8.653,19.813,14.242c0.719,0.669,1.218,1.044,1.64,2.575"/>
	<path fill-rule="evenodd" clip-rule="evenodd" fill="#E2B384" d="M289.766,188.426c8.148,10.646,16.236,21.217,24.329,31.782
		c1.374,1.793,0.425,2.204-1.275,2.204c-7.385-0.004-14.771-0.036-22.156,0.01c-1.779,0.011-2.224-0.887-2.157-2.42
		c0.345-7.868-0.724-15.773,0.651-23.619C289.604,193.834,288.084,191.148,289.766,188.426z"/>
	<path fill-rule="evenodd" clip-rule="evenodd" fill="#092D50" d="M84.024,227.769c0-7.375,0.043-14.751-0.028-22.125
		c-0.019-2.03,0.19-3.782,2.699-3.719c2.472,0.063,2.28,2.182,2.264,3.745c-0.152,14.866-0.508,29.729,0.057,44.596
		c0.073,1.917-0.156,4.353-2.764,4.231c-2.33-0.107-2.304-2.352-2.302-4.215c0.01-7.505,0.004-15.01,0.004-22.514
		C83.977,227.769,84,227.769,84.024,227.769z"/>
	<path fill-rule="evenodd" clip-rule="evenodd" fill="#D2550B" d="M523.567,228.922c0,6.871,0.004,13.741-0.003,20.612
		c-0.001,1.036,0.029,2.082-0.091,3.107c-0.172,1.454-1.087,2.4-2.514,2.539c-1.595,0.156-2.311-0.897-2.486-2.361
		c-0.11-0.898-0.248-1.803-0.246-2.705c0.029-13.999,0.076-27.997,0.128-41.995c0.002-0.777,0.078-1.555,0.11-2.331
		c0.068-1.604,0.647-2.842,2.458-2.876c2.03-0.039,2.635,1.273,2.631,3.066c-0.012,6.61-0.014,13.222-0.019,19.832
		c-0.001,1.037,0,2.074,0,3.111C523.547,228.922,523.558,228.922,523.567,228.922z"/>
	<path fill-rule="evenodd" clip-rule="evenodd" fill="#5D6330" d="M440.209,124.348c-3.984-0.187-7.617,2.586-11.722,1.386
		c-0.266-0.653-0.511-1.052,0.122-1.907c5.797-7.83,11.447-15.768,17.142-23.673c3.063,0.547,4.669,3.29,7.134,4.737
		c-3.234,5.572-7.35,10.524-11.046,15.772C441.083,121.737,439.612,122.625,440.209,124.348z"/>
	<path fill-rule="evenodd" clip-rule="evenodd" fill="#092D50" d="M78.841,228.326c0,4.784-0.024,9.569,0.013,14.353
		c0.014,1.807-0.22,3.783-2.297,3.823c-2.231,0.043-2.736-1.974-2.736-3.924c-0.003-9.563-0.03-19.127,0.04-28.689
		c0.013-1.843,0.45-3.928,2.852-3.816c2.36,0.107,2.105,2.297,2.132,3.899c0.082,4.783,0.029,9.568,0.029,14.354
		C78.864,228.326,78.853,228.326,78.841,228.326z"/>
	<path fill-rule="evenodd" clip-rule="evenodd" fill="#D2550B" d="M535.093,229.942c0,4.788,0.008,9.575-0.004,14.363
		c-0.006,2.002-0.525,3.781-2.964,3.631c-2.255-0.141-2.381-1.996-2.381-3.74c-0.013-9.445-0.012-18.891-0.014-28.336
		c0-1.899,0.227-4.029,2.537-4.054c2.441-0.026,2.906,1.979,2.867,4.162c-0.085,4.657-0.026,9.315-0.026,13.974
		C535.104,229.942,535.098,229.942,535.093,229.942z"/>
	<path fill-rule="evenodd" clip-rule="evenodd" fill="#D2550B" d="M507.114,230.547c0-4.402,0.046-8.806-0.02-13.208
		c-0.03-2.007,0.717-3.417,2.774-3.423c2.035-0.007,2.45,1.798,2.462,3.341c0.06,8.805,0.067,17.61-0.079,26.413
		c-0.025,1.533-0.194,3.747-2.571,3.635c-2.347-0.109-2.661-1.926-2.623-3.938c0.077-4.271,0.023-8.546,0.023-12.819
		C507.093,230.547,507.104,230.547,507.114,230.547z"/>
	<path fill-rule="evenodd" clip-rule="evenodd" fill="#092D50" d="M94.482,219.238c-0.078-1.933-0.283-3.872-0.193-5.798
		c0.07-1.494,0.824-3.005,2.486-2.947c1.765,0.062,2.621,1.408,2.601,3.244c-0.042,3.888-0.046,7.776-0.048,11.664
		c-0.004,6.222-0.001,12.442,0.015,18.664c0.005,1.951-0.332,4.034-2.635,3.996c-2.288-0.038-2.559-2.133-2.519-4.074
		c0.078-3.883,0.124-7.767,0.182-11.649c0.244-1.275,0.488-2.552,0.75-3.923c0.652,0.58,0.628,1.711,1.715,1.464
		c0.986-0.225,0.973-1.059,0.98-1.816c0.023-2.043-0.165-4.105,0.06-6.124C98.199,219.025,97.087,218.287,94.482,219.238z"/>
	<path fill-rule="evenodd" clip-rule="evenodd" fill="#D2550B" d="M445.125,236.854c0,3.219-0.028,6.439,0.013,9.658
		c0.02,1.479-0.43,2.606-2.026,2.738c-1.707,0.14-2.758-0.9-2.769-2.509c-0.049-6.563,0.002-13.132,0.099-19.698
		c0.023-1.541,0.827-2.891,2.516-2.874c1.803,0.017,2.217,1.495,2.227,3.027c0.021,3.219,0.006,6.438,0.006,9.657
		C445.168,236.854,445.146,236.854,445.125,236.854z"/>
	<path fill-rule="evenodd" clip-rule="evenodd" fill="#092D50" d="M104.763,229.973c0-3.221,0.022-6.442-0.009-9.662
		c-0.016-1.608,0.415-2.928,2.247-2.966c2.019-0.044,2.521,1.277,2.506,3.101c-0.049,6.336-0.017,12.67,0.001,19.006
		c0.006,1.855-0.475,3.633-2.596,3.553c-2.131-0.08-2.369-1.858-2.297-3.731c0.12-3.097,0.033-6.2,0.033-9.301
		C104.686,229.972,104.724,229.972,104.763,229.973z"/>
	<path fill-rule="evenodd" clip-rule="evenodd" fill="#D2550B" d="M546.806,230.689c-0.003,2.57,0.018,5.14-0.01,7.711
		c-0.019,1.72-0.648,3.143-2.556,3.263c-2.008,0.127-2.693-1.354-2.719-3.033c-0.082-5.412-0.088-10.827-0.058-16.241
		c0.009-1.69,0.907-2.623,2.707-2.465c1.637,0.144,2.647,0.884,2.641,2.661C546.801,225.287,546.808,227.988,546.806,230.689z"/>
	<path fill-rule="evenodd" clip-rule="evenodd" fill="#5D6330" d="M198.371,238.117c-0.003,3.101-0.049,6.202,0.015,9.3
		c0.035,1.749-0.365,3.235-2.334,3.342c-2.036,0.112-2.53-1.373-2.524-3.121c0.018-6.197,0.043-12.395,0.021-18.593
		c-0.007-1.971,0.795-3.531,2.792-3.394c1.858,0.128,2.125,1.834,2.063,3.554C198.298,232.173,198.374,235.146,198.371,238.117z"/>
	<path fill-rule="evenodd" clip-rule="evenodd" fill="#092D50" d="M64.182,228.292c0-2.594,0.005-5.188-0.002-7.779
		c-0.005-1.603,0.456-2.92,2.325-2.899c1.549,0.018,2.393,1.156,2.405,2.552c0.049,5.702,0.027,11.406-0.119,17.106
		c-0.035,1.374-0.898,2.384-2.581,2.23c-1.677-0.153-2.187-1.31-2.229-2.67c-0.089-2.844-0.027-5.693-0.027-8.54
		C64.03,228.292,64.106,228.292,64.182,228.292z"/>
	<path fill-rule="evenodd" clip-rule="evenodd" fill="#D2550B" d="M500.694,231.856c0,2.192-0.029,4.383,0.009,6.574
		c0.03,1.787-0.623,3.146-2.51,3.256c-1.948,0.113-2.712-1.301-2.732-3.021c-0.054-4.643-0.048-9.286,0.012-13.928
		c0.022-1.747,0.892-3.037,2.768-3.086c2.182-0.056,2.336,1.658,2.383,3.24c0.063,2.319,0.016,4.643,0.016,6.964
		C500.656,231.856,500.676,231.856,500.694,231.856z"/>
	<path fill-rule="evenodd" clip-rule="evenodd" fill="#5D6330" d="M251.883,238.23c0-2.321,0.028-4.643-0.01-6.963
		c-0.025-1.568,0.839-2.566,2.227-2.642c1.648-0.09,2.528,0.992,2.525,2.715c-0.009,4.643,0.004,9.284,0.018,13.927
		c0.005,1.818-1.216,2.645-2.704,2.64c-1.501-0.006-2.107-1.228-2.09-2.715c0.025-2.32,0.006-4.641,0.006-6.962
		C251.864,238.23,251.873,238.23,251.883,238.23z"/>
	<path fill-rule="evenodd" clip-rule="evenodd" fill="#D2550B" d="M434.634,236.717c-0.079,1.667-0.115,3.338-0.261,4.999
		c-0.131,1.484-0.975,2.347-2.515,2.383c-1.422,0.033-2.198-0.811-2.289-2.108c-0.26-3.727-0.433-7.465,0.045-11.186
		c0.185-1.437,0.984-2.383,2.606-2.216c1.393,0.146,2.016,1.079,2.116,2.349C434.488,232.861,434.537,234.792,434.634,236.717z"/>
	<path fill-rule="evenodd" clip-rule="evenodd" fill="#092D50" d="M241.632,265.431c0.813,2.228,1.624,4.455,2.435,6.683
		c-4.208,2.23-7.828,5.515-12.973,5.443c4.463-3.004,4.149-5.354,0.594-7.563C234.512,267.926,238.561,266.957,241.632,265.431z"/>
	<path fill-rule="evenodd" clip-rule="evenodd" fill="#5D6330" d="M187.362,237.065c0,1.941-0.006,3.88,0.001,5.821
		c0.006,1.469-0.572,2.683-2.101,2.753c-1.605,0.073-2.656-0.86-2.655-2.629c0.002-4.139-0.011-8.279,0.024-12.418
		c0.012-1.367,0.35-2.786,2.022-2.735c1.726,0.051,2.848,1,2.763,3c-0.087,2.066-0.019,4.138-0.019,6.208
		C187.385,237.065,187.374,237.065,187.362,237.065z"/>
	<path fill-rule="evenodd" clip-rule="evenodd" fill="#D2550B" d="M456.504,236.899c0,1.426-0.018,2.851,0.005,4.275
		c0.024,1.531-0.638,2.579-2.208,2.605c-1.549,0.024-2.892-0.674-2.968-2.408c-0.149-3.361-0.149-6.732-0.138-10.099
		c0.005-1.523,1.003-2.482,2.403-2.558c1.463-0.08,2.462,1.066,2.674,2.378c0.307,1.902,0.227,3.866,0.313,5.805
		C456.558,236.899,456.531,236.899,456.504,236.899z"/>
	<path fill-rule="evenodd" clip-rule="evenodd" fill="#5D6330" d="M209.326,238.92c0,1.805,0.042,3.61-0.012,5.414
		c-0.05,1.664-1.023,2.795-2.625,2.711c-1.371-0.071-2.257-1.179-2.251-2.674c0.015-3.738,0.048-7.479,0.125-11.215
		c0.033-1.621,0.708-2.768,2.563-2.642c1.875,0.128,2.229,1.399,2.193,2.988c-0.041,1.804-0.009,3.61-0.009,5.417
		C209.315,238.92,209.32,238.92,209.326,238.92z"/>
	<path fill-rule="evenodd" clip-rule="evenodd" fill="#092D50" d="M114.871,229.924c0-1.804-0.028-3.607,0.009-5.411
		c0.031-1.476,1.123-1.994,2.317-2.076c1.307-0.088,2.315,0.632,2.34,2.015c0.068,3.733,0.084,7.47-0.036,11.199
		c-0.045,1.436-1.049,2.422-2.539,2.362c-1.323-0.054-2.067-1.038-2.122-2.329c-0.081-1.916-0.021-3.839-0.021-5.76
		C114.836,229.924,114.854,229.924,114.871,229.924z"/>
	<path fill-rule="evenodd" clip-rule="evenodd" fill="#5D6330" d="M268.218,237.94c0,1.163,0.155,2.352-0.039,3.481
		c-0.25,1.466-1.29,2.136-2.813,2.043c-1.425-0.086-2.134-0.897-2.181-2.225c-0.073-2.064-0.013-4.134-0.034-6.201
		c-0.019-1.782,0.688-3.243,2.569-3.101c1.684,0.128,2.667,1.428,2.579,3.288c-0.042,0.902-0.008,1.809-0.008,2.714
		C268.267,237.94,268.242,237.94,268.218,237.94z"/>
	<path fill-rule="evenodd" clip-rule="evenodd" fill="#D2550B" d="M553.709,231.018c0.633-1.909-1.273-5.381,2.401-5.438
		c3.744-0.057,2.763,3.386,2.682,5.619c-0.078,2.199,0.973,5.791-2.798,5.56C552.61,236.552,554.232,233.134,553.709,231.018z"/>
	<path fill-rule="evenodd" clip-rule="evenodd" fill="#092D50" d="M58.761,228.538c0,1.41,0.167,2.847-0.051,4.22
		c-0.186,1.16-0.913,2.14-2.373,2.015c-1.389-0.118-2.076-1.016-2.148-2.274c-0.126-2.173-0.092-4.354-0.136-6.532
		c-0.036-1.763,0.583-3.211,2.532-3.056c1.804,0.145,2.516,1.493,2.285,3.32c-0.096,0.758-0.016,1.538-0.016,2.308
		C58.822,228.538,58.792,228.538,58.761,228.538z"/>
	<path fill-rule="evenodd" clip-rule="evenodd" fill="#5D6330" d="M245.646,239.063c-0.007,0.118-0.039,1.28-0.172,2.43
		c-0.164,1.399-1.042,1.965-2.414,1.922c-1.365-0.044-2.242-0.632-2.283-2.059c-0.06-2.063-0.024-4.127-0.055-6.19
		c-0.026-1.708,0.743-2.765,2.491-2.743c1.812,0.021,2.349,1.325,2.425,2.888C245.682,236.211,245.646,237.117,245.646,239.063z"/>
	<path fill-rule="evenodd" clip-rule="evenodd" fill="#092D50" d="M162.396,215.435c1.206-1.498,2.439-0.253,3.358,0.225
		c5.033,2.614,5.109,2.62,5.3-2.825c2.94,2.793,5.88,5.583,9.497,9.018C173.539,220.579,167.52,219.313,162.396,215.435z"/>
	<path fill-rule="evenodd" clip-rule="evenodd" fill="#D2550B" d="M489.042,231.943c-0.339,2.295,0.12,5.153-2.88,4.89
		c-3.22-0.284-2.166-3.186-2.228-5.258c-0.056-1.879-0.022-4.125,2.396-4.032C489.134,227.652,488.876,230.254,489.042,231.943z"/>
	<path fill-rule="evenodd" clip-rule="evenodd" fill="#5D6330" d="M220.847,238.269c-0.177,1.252,0.42,2.652-0.43,3.742
		c-1.018,1.307-2.398,1.447-3.72,0.421c-1.016-0.789-1.113-7.444-0.117-8.467c1.134-1.167,2.531-1.44,3.69-0.154
		C221.414,235.082,220.646,236.773,220.847,238.269z"/>
	<path fill-rule="evenodd" clip-rule="evenodd" fill="#213858" d="M452.885,104.891c-2.465-1.448-4.07-4.19-7.134-4.737
		c1.36-1.658,1.335-5.547,5.292-2.704C455.801,100.871,455.928,100.694,452.885,104.891z"/>
	<path fill-rule="evenodd" clip-rule="evenodd" fill="#5D6330" d="M176.463,236.395c0,0.772,0.089,1.559-0.019,2.316
		c-0.207,1.451-1.066,2.504-2.576,2.267c-1.945-0.306-2.266-1.922-2.072-3.566c0.252-2.138-1.039-4.896,1.958-6.034
		c1.567-0.594,2.423,0.637,2.729,1.973c0.221,0.968,0.043,2.027,0.043,3.047C176.505,236.396,176.484,236.396,176.463,236.395z"/>
	<path fill-rule="evenodd" clip-rule="evenodd" fill="#092D50" d="M94.482,219.238c2.605-0.951,3.717-0.213,3.394,2.7
		c-0.224,2.019-0.036,4.081-0.06,6.124c-0.008,0.758,0.006,1.592-0.98,1.816c-1.087,0.247-1.063-0.884-1.715-1.464
		c-0.262,1.371-0.506,2.647-0.75,3.923C94.025,227.968,93.947,223.6,94.482,219.238z"/>
	<path fill-rule="evenodd" clip-rule="evenodd" fill="#213858" d="M329.726,135.189c-1.176,1.19-2.68,0.709-4.042,0.712
		c-14.701,0.043-29.404,0.027-44.105,0.073c-1.351,0.004-2.873-0.522-4,0.776c-0.742-0.354-0.95-0.937-0.288-1.435
		c0.347-0.26,1.001-0.142,1.517-0.142C295.781,135.175,312.752,135.183,329.726,135.189z"/>
	<path fill-rule="evenodd" clip-rule="evenodd" fill="#D2550B" d="M417.681,236.44c0.539-1.597-0.332-4.052,2.499-4.028
		c2.501,0.02,2.659,1.982,2.738,3.874c0.08,1.949-0.117,3.889-2.631,3.837C418.012,240.076,418.045,238.043,417.681,236.44z"/>
	<path fill-rule="evenodd" clip-rule="evenodd" fill="#092D50" d="M129.869,230.23c-0.249,1.967,0.587,4.588-2.413,4.486
		c-3.25-0.112-2.055-2.941-2.257-4.762c-0.203-1.834,0.273-3.454,2.618-3.274C130.308,226.872,129.92,228.765,129.869,230.23z"/>
	<path fill-rule="evenodd" clip-rule="evenodd" fill="#5D6330" d="M274.903,237.069c-0.021-1.361,0.578-3.046,2.689-2.968
		c2.473,0.09,2.396,2.16,2.458,4.028c0.065,1.991-0.735,3.53-2.711,3.484C274.897,241.556,274.826,239.483,274.903,237.069z"/>
	<path fill-rule="evenodd" clip-rule="evenodd" fill="#092D50" d="M161.052,198.042c-1.898-0.714-5.25-6.137-4.696-7.845
		c0.76-2.341,2.83-1.225,4.288-1.264c4.014-0.11,5.844,1.559,5.857,4.939c-2.184-2.702-5.255-3.141-8.943-3.524
		C158.831,193.151,159.941,195.596,161.052,198.042z"/>
	<path fill-rule="evenodd" clip-rule="evenodd" fill="#D2550B" d="M467.778,235.989c-0.146,1.813,0.121,3.843-2.438,3.646
		c-2.546-0.196-2.475-2.313-2.419-4.074c0.045-1.474,0.117-3.242,2.374-3.234C468.097,232.335,467.695,234.402,467.778,235.989z"/>
	<path fill-rule="evenodd" clip-rule="evenodd" fill="#5D6330" d="M231.311,234.705c2.017,0.305,2.699,1.663,2.574,3.312
		c-0.121,1.581-0.787,3.117-2.776,2.984c-1.93-0.127-2.476-1.633-2.495-3.267C228.592,235.928,229.666,234.964,231.311,234.705z"/>
	<path fill-rule="evenodd" clip-rule="evenodd" fill="#092D50" d="M157.103,220.057c-4.538-0.821-8.827-2.096-12.572-4.748
		c1.053-2.157,4.705,1.064,3.09-2.793L157.103,220.057z"/>
	<path fill-rule="evenodd" clip-rule="evenodd" fill="#5D6330" d="M163.047,238.228c-1.756-0.237-2.196-1.539-2.166-3.039
		c0.03-1.482,0.457-2.943,2.275-2.979c1.688-0.032,2.485,1.008,2.477,2.729C165.624,236.719,164.95,237.896,163.047,238.228z"/>
	<path fill-rule="evenodd" clip-rule="evenodd" fill="#D2550B" d="M570.718,231.526c-0.358,1.359-1.078,2.338-2.643,2.299
		c-1.683-0.041-2.287-1.396-2.284-2.62c0.005-1.548,1.113-2.692,2.785-2.52C570.092,228.842,570.521,230.164,570.718,231.526z"/>
	<path fill-rule="evenodd" clip-rule="evenodd" fill="#D2550B" d="M476.445,236.284c-1.854,0.005-2.472-1.512-2.659-3.002
		c-0.172-1.374,0.695-2.48,2.226-2.553c1.899-0.092,2.175,1.499,2.411,2.822C478.664,234.895,478.356,236.142,476.445,236.284z"/>
	<path fill-rule="evenodd" clip-rule="evenodd" fill="#092D50" d="M48.957,229.344c0.047,1.112-0.077,2.635-2.112,2.503
		c-1.891-0.121-1.992-1.669-2.099-3.148c-0.113-1.584,0.715-2.649,2.112-2.74C48.814,225.832,48.954,227.436,48.957,229.344z"/>
	<path fill-rule="evenodd" clip-rule="evenodd" fill="#092D50" d="M170.73,212.221c-2.757-0.268-3.372-2.772-4.672-4.529
		c-2.183-2.95-4.435-5.882-5.021-9.667C164.268,202.757,167.499,207.489,170.73,212.221z"/>
	<path fill-rule="evenodd" clip-rule="evenodd" fill="#D2550B" d="M411.104,236.1c-0.148,1.181-0.645,2.332-2.242,2.358
		c-1.337,0.022-2.129-0.732-2.182-2.108c-0.054-1.407,0.426-2.726,1.931-2.797C409.935,233.491,411.012,234.337,411.104,236.1z"/>
	<path fill-rule="evenodd" clip-rule="evenodd" fill="#5D6330" d="M289.519,235.55c1.333,0.232,2.137,1.046,2.031,2.361
		c-0.108,1.336-1.091,2.051-2.407,1.976c-1.222-0.07-1.8-0.987-1.818-2.117C287.304,236.371,288.22,235.742,289.519,235.55z"/>
	<path fill-rule="evenodd" clip-rule="evenodd" fill="#092D50" d="M138.23,228.363c0.908,0.091,1.668,0.792,1.647,2.16
		c-0.021,1.389-0.863,2.092-2.171,2.087c-1.338-0.007-2.233-0.821-2.112-2.144C135.701,229.311,136.341,228.294,138.23,228.363z"/>
	<path fill-rule="evenodd" clip-rule="evenodd" fill="#213858" d="M39.409,228.703c-0.157,1.38-0.74,2.625-2.175,2.678
		c-1.198,0.044-2.134-0.994-2.147-2.219c-0.012-1.142,0.505-2.202,1.964-2.326C38.459,226.717,39.133,227.443,39.409,228.703z"/>
	<path fill-rule="evenodd" clip-rule="evenodd" fill="#5D6330" d="M154.584,234.349c-0.551,1.325-1.192,2.356-2.569,2.131
		c-1.114-0.183-1.777-1.016-1.603-2.229c0.177-1.232,1.147-1.728,2.202-1.742C153.84,232.491,154.171,233.573,154.584,234.349z"/>
	<path fill-rule="evenodd" clip-rule="evenodd" fill="#092D50" d="M169.402,196.659c2.142,0.126,3.682,0.839,3.322,3.404
		C171.617,198.928,170.51,197.794,169.402,196.659z"/>
	<path fill-rule="evenodd" clip-rule="evenodd" fill="#092D50" d="M174.041,201.348c2.289-0.278,2.863,1.249,3.194,3.032
		C176.17,203.371,175.105,202.359,174.041,201.348z"/>
	<path fill-rule="evenodd" clip-rule="evenodd" fill="#092D50" d="M227.623,271.257"/>
	<path fill-rule="evenodd" clip-rule="evenodd" fill="#092D50" d="M177.25,204.396c1.188,0.077,2.497,0.034,1.901,1.9
		C178.517,205.664,177.883,205.03,177.25,204.396z"/>
	<path fill-rule="evenodd" clip-rule="evenodd" fill="#092D50" d="M167.862,195.09c1.032,0.02,1.547,0.546,1.548,1.577
		C168.895,196.142,168.378,195.617,167.862,195.09z"/>
	<path fill-rule="evenodd" clip-rule="evenodd" fill="#092D50" d="M166.763,194.095c0.937-0.294,1.021,0.352,1.104,1
		C167.499,194.761,167.13,194.428,166.763,194.095z"/>
	<path fill-rule="evenodd" clip-rule="evenodd" fill="#092D50" d="M173.006,200.345c0.962-0.289,0.993,0.382,1.053,1.022
		C173.708,201.027,173.357,200.686,173.006,200.345z"/>
	<path fill-rule="evenodd" clip-rule="evenodd" fill="#5D6330" d="M323.492,275.999c0,0.001-0.049,0.084-0.049,0.084"/>
	<path fill-rule="evenodd" clip-rule="evenodd" fill="#D2550B" d="M446.479,214.578c-0.112,0.036-0.224,0.072-0.335,0.107
		c0.124-0.013,0.246-0.024,0.371-0.032C446.517,214.657,446.479,214.578,446.479,214.578z"/>
	<path fill-rule="evenodd" clip-rule="evenodd" fill="#213858" d="M179.243,206.374c0.548-0.104,0.852,0.146,0.966,0.669
		C179.887,206.82,179.565,206.596,179.243,206.374z"/>
	<path fill-rule="evenodd" clip-rule="evenodd" fill="#5D6330" d="M325.255,276.607"/>
	<path fill-rule="evenodd" clip-rule="evenodd" fill="#FDFDFD" d="M434.79,179.376c-3.686,0.678-2.934-0.978-2.438-2.534
		c3.68-11.579,11.823-17.569,23.654-19.08c3.953-0.505,7.887-1.22,11.803-1.979c2.15-0.417,3.315-0.33,2.444,2.379
		c-1.569,4.889-2.571,9.955-4.636,14.691c-0.398,0.912-0.474,1.848-1.881,2.055C453.808,176.375,443.896,177.958,434.79,179.376z"/>
	<path fill-rule="evenodd" clip-rule="evenodd" fill="#FDFDFD" d="M141.448,155.266c9.04,1.893,17.118,3.391,25.087,5.337
		c3.818,0.933,7.007,3.311,8.996,6.866c2.638,4.715,0.263,9.171-5.126,9.838c-6.297,0.779-12.328-1.116-18.474-1.832
		c-1.251-0.146-1.966-1.193-2.458-2.285C146.945,167.575,144.438,161.949,141.448,155.266z"/>
	<path fill-rule="evenodd" clip-rule="evenodd" fill="#092D50" d="M334.452,227.815c1.195-0.555,1.786,2.541,3.223,0.533
		c6.063,7.32,11.693,14.962,16.98,22.858c-0.254,0.504-0.508,1.009-0.761,1.511C347.273,244.527,340.54,236.422,334.452,227.815z"/>
	<path fill-rule="evenodd" clip-rule="evenodd" fill="#092D50" d="M353.895,252.717c0.253-0.502,0.507-1.007,0.761-1.511
		c4.827,5.32,8.94,11.19,12.766,17.23c2.329,3.678,6.437,6.096,7.431,10.673c-3.809-1.623-5.125-5.548-7.452-8.447
		C362.723,264.829,357.619,259.28,353.895,252.717z"/>
	<path fill-rule="evenodd" clip-rule="evenodd" fill="#5D6330" d="M375.639,279.882c-0.263-0.258-0.525-0.515-0.787-0.772"/>
</g>
</svg>